<mxfile host="app.diagrams.net" modified="2020-06-26T06:46:39.483Z" agent="5.0 (Macintosh; Intel Mac OS X 10_15_5) AppleWebKit/537.36 (KHTML, like Gecko) Chrome/81.0.4044.96 YaBrowser/20.4.0.3443 Yowser/2.5 Yptp/1.21 Safari/537.36" etag="ZL-kWUwWE2BBJPFD04Wk" version="13.3.1" type="github">
  <diagram name="Page-1" id="f1b7ffb7-ca1e-a977-7cf5-a751b3c06c05">
    <mxGraphModel dx="946" dy="629" grid="1" gridSize="10" guides="1" tooltips="1" connect="1" arrows="1" fold="1" page="1" pageScale="1" pageWidth="826" pageHeight="1169" background="#ffffff" math="0" shadow="0">
      <root>
        <mxCell id="0" />
        <mxCell id="1" parent="0" />
        <mxCell id="L32rWy5U-hmD1AWpwfB_-86" value="" style="rounded=0;whiteSpace=wrap;html=1;" vertex="1" parent="1">
          <mxGeometry x="50" y="690" width="350" height="210" as="geometry" />
        </mxCell>
        <mxCell id="L32rWy5U-hmD1AWpwfB_-64" value="" style="rounded=0;whiteSpace=wrap;html=1;" vertex="1" parent="1">
          <mxGeometry x="50" y="70" width="720" height="380" as="geometry" />
        </mxCell>
        <mxCell id="L32rWy5U-hmD1AWpwfB_-65" value="" style="rounded=0;whiteSpace=wrap;html=1;" vertex="1" parent="1">
          <mxGeometry x="50" y="460" width="350" height="210" as="geometry" />
        </mxCell>
        <mxCell id="L32rWy5U-hmD1AWpwfB_-66" value="" style="rounded=0;whiteSpace=wrap;html=1;" vertex="1" parent="1">
          <mxGeometry x="420" y="460" width="350" height="440" as="geometry" />
        </mxCell>
        <mxCell id="L32rWy5U-hmD1AWpwfB_-67" value="Общая информация" style="text;html=1;strokeColor=none;fillColor=none;align=center;verticalAlign=middle;whiteSpace=wrap;rounded=0;" vertex="1" parent="1">
          <mxGeometry x="50" y="70" width="140" height="20" as="geometry" />
        </mxCell>
        <mxCell id="L32rWy5U-hmD1AWpwfB_-71" value="Партнер" style="text;html=1;strokeColor=none;fillColor=none;align=center;verticalAlign=middle;whiteSpace=wrap;rounded=0;" vertex="1" parent="1">
          <mxGeometry x="10" y="460" width="140" height="20" as="geometry" />
        </mxCell>
        <mxCell id="L32rWy5U-hmD1AWpwfB_-73" value="Название партнера&lt;span style=&quot;color: rgba(0 , 0 , 0 , 0) ; font-family: monospace ; font-size: 0px&quot;&gt;%3CmxGraphModel%3E%3Croot%3E%3CmxCell%20id%3D%220%22%2F%3E%3CmxCell%20id%3D%221%22%20parent%3D%220%22%2F%3E%3CmxCell%20id%3D%222%22%20value%3D%22%D0%9E%D0%B1%D1%89%D0%B0%D1%8F%20%D0%B8%D0%BD%D1%84%D0%BE%D1%80%D0%BC%D0%B0%D1%86%D0%B8%D1%8F%22%20style%3D%22text%3Bhtml%3D1%3BstrokeColor%3Dnone%3BfillColor%3Dnone%3Balign%3Dcenter%3BverticalAlign%3Dmiddle%3BwhiteSpace%3Dwrap%3Brounded%3D0%3B%22%20vertex%3D%221%22%20parent%3D%221%22%3E%3CmxGeometry%20x%3D%2250%22%20y%3D%2270%22%20width%3D%22140%22%20height%3D%2220%22%20as%3D%22geometry%22%2F%3E%3C%2FmxCell%3E%3C%2Froot%3E%3C%2FmxGraphModel%3E&lt;/span&gt;" style="text;html=1;strokeColor=none;fillColor=none;align=center;verticalAlign=middle;whiteSpace=wrap;rounded=0;" vertex="1" parent="1">
          <mxGeometry x="70" y="490" width="140" height="20" as="geometry" />
        </mxCell>
        <mxCell id="L32rWy5U-hmD1AWpwfB_-74" value="Хлеб Насущный" style="text;html=1;strokeColor=none;fillColor=none;align=center;verticalAlign=middle;whiteSpace=wrap;rounded=0;strokeWidth=1;fontStyle=1" vertex="1" parent="1">
          <mxGeometry x="240" y="490" width="140" height="20" as="geometry" />
        </mxCell>
        <mxCell id="L32rWy5U-hmD1AWpwfB_-75" value="Адрес партнера" style="text;html=1;strokeColor=none;fillColor=none;align=center;verticalAlign=middle;whiteSpace=wrap;rounded=0;" vertex="1" parent="1">
          <mxGeometry x="70" y="520" width="140" height="20" as="geometry" />
        </mxCell>
        <mxCell id="L32rWy5U-hmD1AWpwfB_-76" value="Москва, Красная пл.1" style="text;html=1;strokeColor=none;fillColor=none;align=center;verticalAlign=middle;whiteSpace=wrap;rounded=0;strokeWidth=1;fontStyle=1" vertex="1" parent="1">
          <mxGeometry x="240" y="520" width="140" height="20" as="geometry" />
        </mxCell>
        <mxCell id="L32rWy5U-hmD1AWpwfB_-77" value="id&amp;nbsp;&amp;nbsp;партнера" style="text;html=1;strokeColor=none;fillColor=none;align=center;verticalAlign=middle;whiteSpace=wrap;rounded=0;" vertex="1" parent="1">
          <mxGeometry x="70" y="550" width="140" height="20" as="geometry" />
        </mxCell>
        <mxCell id="L32rWy5U-hmD1AWpwfB_-78" value="30303j3030fj8e33" style="text;html=1;strokeColor=none;fillColor=none;align=center;verticalAlign=middle;whiteSpace=wrap;rounded=0;strokeWidth=1;fontStyle=1" vertex="1" parent="1">
          <mxGeometry x="240" y="550" width="140" height="20" as="geometry" />
        </mxCell>
        <mxCell id="L32rWy5U-hmD1AWpwfB_-79" value="id транзакции" style="text;html=1;strokeColor=none;fillColor=none;align=center;verticalAlign=middle;whiteSpace=wrap;rounded=0;" vertex="1" parent="1">
          <mxGeometry x="70" y="110" width="140" height="20" as="geometry" />
        </mxCell>
        <mxCell id="L32rWy5U-hmD1AWpwfB_-80" value="02ти84о474иа7383шта" style="text;html=1;strokeColor=none;fillColor=none;align=center;verticalAlign=middle;whiteSpace=wrap;rounded=0;strokeWidth=1;fontStyle=1" vertex="1" parent="1">
          <mxGeometry x="240" y="110" width="140" height="20" as="geometry" />
        </mxCell>
        <mxCell id="L32rWy5U-hmD1AWpwfB_-81" value="Сумма" style="text;html=1;strokeColor=none;fillColor=none;align=center;verticalAlign=middle;whiteSpace=wrap;rounded=0;" vertex="1" parent="1">
          <mxGeometry x="70" y="140" width="140" height="20" as="geometry" />
        </mxCell>
        <mxCell id="L32rWy5U-hmD1AWpwfB_-82" value="300 руб." style="text;html=1;strokeColor=none;fillColor=none;align=center;verticalAlign=middle;whiteSpace=wrap;rounded=0;strokeWidth=1;fontStyle=1" vertex="1" parent="1">
          <mxGeometry x="240" y="140" width="140" height="20" as="geometry" />
        </mxCell>
        <mxCell id="L32rWy5U-hmD1AWpwfB_-83" value="Дата/время" style="text;html=1;strokeColor=none;fillColor=none;align=center;verticalAlign=middle;whiteSpace=wrap;rounded=0;" vertex="1" parent="1">
          <mxGeometry x="80" y="170" width="140" height="20" as="geometry" />
        </mxCell>
        <mxCell id="L32rWy5U-hmD1AWpwfB_-84" value="&lt;div class=&quot;order-information-common__moscow-date&quot; style=&quot;display: flex; font-family: &amp;quot;yandex sans text web&amp;quot;, arial, sans-serif; font-size: 14px; background-color: rgb(255, 255, 255);&quot;&gt;&lt;div class=&quot;TextWithCopy&quot; style=&quot;display: flex&quot;&gt;&lt;div class=&quot;TextWithCopy__text TextWithCopy__text_no-wrap&quot; title=&quot;23.06.2020 в 14:54:00&quot; style=&quot;text-overflow: ellipsis ; overflow: hidden&quot;&gt;&lt;span class=&quot;order-information-common__moscow-date-text&quot; style=&quot;vertical-align: middle&quot;&gt;23.06.2020 в 14:54:00&lt;/span&gt;&lt;/div&gt;&lt;div&gt;&lt;span class=&quot;order-information-common__moscow-date-text&quot; style=&quot;vertical-align: middle&quot;&gt;&lt;br&gt;&lt;/span&gt;&lt;/div&gt;&lt;div class=&quot;TextWithCopy__icon-wrap&quot; style=&quot;display: flex&quot;&gt;&lt;span class=&quot;amber-icon amber-icon_copy TextWithCopy__icon&quot; style=&quot;display: inline-block ; width: 20px ; height: 20px ; opacity: 0.5 ; margin-left: 8px ; transition: 0.1s ease-out 0s ; cursor: pointer&quot;&gt;&lt;/span&gt;&lt;/div&gt;&lt;/div&gt;&lt;/div&gt;&lt;div class=&quot;order-information-common__due-local-date&quot; style=&quot;color: rgb(158, 155, 152); font-family: &amp;quot;yandex sans text web&amp;quot;, arial, sans-serif; font-size: 14px; background-color: rgb(255, 255, 255);&quot;&gt;&lt;div class=&quot;TextWithCopy&quot; style=&quot;display: flex&quot;&gt;&lt;/div&gt;&lt;/div&gt;" style="text;html=1;strokeColor=none;fillColor=none;align=center;verticalAlign=middle;whiteSpace=wrap;rounded=0;strokeWidth=1;fontStyle=1" vertex="1" parent="1">
          <mxGeometry x="250" y="170" width="200" height="20" as="geometry" />
        </mxCell>
        <mxCell id="L32rWy5U-hmD1AWpwfB_-85" value="Пользователь" style="text;html=1;strokeColor=none;fillColor=none;align=center;verticalAlign=middle;whiteSpace=wrap;rounded=0;" vertex="1" parent="1">
          <mxGeometry x="30" y="690" width="140" height="20" as="geometry" />
        </mxCell>
        <mxCell id="L32rWy5U-hmD1AWpwfB_-87" value="Заказ" style="text;html=1;strokeColor=none;fillColor=none;align=center;verticalAlign=middle;whiteSpace=wrap;rounded=0;" vertex="1" parent="1">
          <mxGeometry x="400" y="460" width="140" height="20" as="geometry" />
        </mxCell>
        <mxCell id="L32rWy5U-hmD1AWpwfB_-88" value="Кофе&amp;nbsp;" style="text;html=1;strokeColor=none;fillColor=none;align=center;verticalAlign=middle;whiteSpace=wrap;rounded=0;" vertex="1" parent="1">
          <mxGeometry x="440" y="510" width="140" height="20" as="geometry" />
        </mxCell>
        <mxCell id="L32rWy5U-hmD1AWpwfB_-89" value="100 руб." style="text;html=1;strokeColor=none;fillColor=none;align=center;verticalAlign=middle;whiteSpace=wrap;rounded=0;strokeWidth=1;fontStyle=1" vertex="1" parent="1">
          <mxGeometry x="610" y="510" width="140" height="20" as="geometry" />
        </mxCell>
        <mxCell id="L32rWy5U-hmD1AWpwfB_-90" value="Пирожок x2" style="text;html=1;strokeColor=none;fillColor=none;align=center;verticalAlign=middle;whiteSpace=wrap;rounded=0;" vertex="1" parent="1">
          <mxGeometry x="450" y="540" width="140" height="20" as="geometry" />
        </mxCell>
        <mxCell id="L32rWy5U-hmD1AWpwfB_-91" value="400 руб." style="text;html=1;strokeColor=none;fillColor=none;align=center;verticalAlign=middle;whiteSpace=wrap;rounded=0;strokeWidth=1;fontStyle=1" vertex="1" parent="1">
          <mxGeometry x="610" y="540" width="140" height="20" as="geometry" />
        </mxCell>
        <mxCell id="L32rWy5U-hmD1AWpwfB_-93" value="" style="endArrow=none;html=1;" edge="1" parent="1">
          <mxGeometry width="50" height="50" relative="1" as="geometry">
            <mxPoint x="460" y="580" as="sourcePoint" />
            <mxPoint x="760" y="580" as="targetPoint" />
          </mxGeometry>
        </mxCell>
        <mxCell id="L32rWy5U-hmD1AWpwfB_-94" value="Итого" style="text;html=1;strokeColor=none;fillColor=none;align=center;verticalAlign=middle;whiteSpace=wrap;rounded=0;" vertex="1" parent="1">
          <mxGeometry x="455" y="590" width="140" height="20" as="geometry" />
        </mxCell>
        <mxCell id="L32rWy5U-hmD1AWpwfB_-95" value="500 руб." style="text;html=1;strokeColor=none;fillColor=none;align=center;verticalAlign=middle;whiteSpace=wrap;rounded=0;strokeWidth=1;fontStyle=1" vertex="1" parent="1">
          <mxGeometry x="615" y="590" width="140" height="20" as="geometry" />
        </mxCell>
        <mxCell id="L32rWy5U-hmD1AWpwfB_-96" value="uuid" style="text;html=1;strokeColor=none;fillColor=none;align=center;verticalAlign=middle;whiteSpace=wrap;rounded=0;" vertex="1" parent="1">
          <mxGeometry x="70" y="770" width="140" height="20" as="geometry" />
        </mxCell>
        <mxCell id="L32rWy5U-hmD1AWpwfB_-97" value="39jf9fif90en93n38e" style="text;html=1;strokeColor=none;fillColor=none;align=center;verticalAlign=middle;whiteSpace=wrap;rounded=0;strokeWidth=1;fontStyle=1" vertex="1" parent="1">
          <mxGeometry x="230" y="770" width="140" height="20" as="geometry" />
        </mxCell>
        <mxCell id="L32rWy5U-hmD1AWpwfB_-98" value="Количество заказов" style="text;html=1;strokeColor=none;fillColor=none;align=center;verticalAlign=middle;whiteSpace=wrap;rounded=0;" vertex="1" parent="1">
          <mxGeometry x="70" y="790" width="140" height="20" as="geometry" />
        </mxCell>
        <mxCell id="L32rWy5U-hmD1AWpwfB_-99" value="100" style="text;html=1;strokeColor=none;fillColor=none;align=center;verticalAlign=middle;whiteSpace=wrap;rounded=0;strokeWidth=1;fontStyle=1" vertex="1" parent="1">
          <mxGeometry x="230" y="790" width="140" height="20" as="geometry" />
        </mxCell>
        <mxCell id="L32rWy5U-hmD1AWpwfB_-100" value="Приложение" style="text;html=1;strokeColor=none;fillColor=none;align=center;verticalAlign=middle;whiteSpace=wrap;rounded=0;" vertex="1" parent="1">
          <mxGeometry x="70" y="810" width="140" height="20" as="geometry" />
        </mxCell>
        <mxCell id="L32rWy5U-hmD1AWpwfB_-101" value="iphone" style="text;html=1;strokeColor=none;fillColor=none;align=center;verticalAlign=middle;whiteSpace=wrap;rounded=0;strokeWidth=1;fontStyle=1" vertex="1" parent="1">
          <mxGeometry x="230" y="810" width="140" height="20" as="geometry" />
        </mxCell>
        <mxCell id="L32rWy5U-hmD1AWpwfB_-102" value="User Agent" style="text;html=1;strokeColor=none;fillColor=none;align=center;verticalAlign=middle;whiteSpace=wrap;rounded=0;" vertex="1" parent="1">
          <mxGeometry x="70" y="850" width="140" height="20" as="geometry" />
        </mxCell>
        <mxCell id="L32rWy5U-hmD1AWpwfB_-103" value="&lt;span style=&quot;font-family: &amp;#34;yandex sans text&amp;#34; , &amp;#34;arial&amp;#34; , &amp;#34;helvetica&amp;#34; , sans-serif ; font-size: 14px ; font-weight: 400 ; background-color: rgb(245 , 244 , 242)&quot;&gt;yandex-taxi/3.150.2.121389 Android/10 (samsung; SM-J600F)&lt;/span&gt;" style="text;html=1;strokeColor=none;fillColor=none;align=center;verticalAlign=middle;whiteSpace=wrap;rounded=0;strokeWidth=1;fontStyle=1" vertex="1" parent="1">
          <mxGeometry x="195" y="860" width="190" height="20" as="geometry" />
        </mxCell>
        <mxCell id="L32rWy5U-hmD1AWpwfB_-105" value="Показать телефон и почту" style="rounded=1;whiteSpace=wrap;html=1;strokeWidth=1;fillColor=#f5f5f5;strokeColor=#666666;fontColor=#333333;" vertex="1" parent="1">
          <mxGeometry x="60" y="710" width="180" height="40" as="geometry" />
        </mxCell>
        <mxCell id="L32rWy5U-hmD1AWpwfB_-107" value="Кешбек" style="text;html=1;strokeColor=none;fillColor=none;align=center;verticalAlign=middle;whiteSpace=wrap;rounded=0;" vertex="1" parent="1">
          <mxGeometry x="445" y="675" width="140" height="20" as="geometry" />
        </mxCell>
        <mxCell id="L32rWy5U-hmD1AWpwfB_-108" value="100" style="text;html=1;strokeColor=none;fillColor=none;align=center;verticalAlign=middle;whiteSpace=wrap;rounded=0;strokeWidth=1;fontStyle=1" vertex="1" parent="1">
          <mxGeometry x="615" y="675" width="140" height="20" as="geometry" />
        </mxCell>
        <mxCell id="L32rWy5U-hmD1AWpwfB_-109" value="Статус кешбека" style="text;html=1;strokeColor=none;fillColor=none;align=center;verticalAlign=middle;whiteSpace=wrap;rounded=0;" vertex="1" parent="1">
          <mxGeometry x="445" y="710" width="140" height="20" as="geometry" />
        </mxCell>
        <mxCell id="L32rWy5U-hmD1AWpwfB_-110" value="начислен" style="text;html=1;strokeColor=none;fillColor=none;align=center;verticalAlign=middle;whiteSpace=wrap;rounded=0;strokeWidth=1;fontStyle=1" vertex="1" parent="1">
          <mxGeometry x="615" y="710" width="140" height="20" as="geometry" />
        </mxCell>
        <mxCell id="L32rWy5U-hmD1AWpwfB_-111" value="Телефон" style="text;html=1;strokeColor=none;fillColor=none;align=center;verticalAlign=middle;whiteSpace=wrap;rounded=0;" vertex="1" parent="1">
          <mxGeometry x="70" y="580" width="140" height="20" as="geometry" />
        </mxCell>
        <mxCell id="L32rWy5U-hmD1AWpwfB_-112" value="84991234567" style="text;html=1;strokeColor=none;fillColor=none;align=center;verticalAlign=middle;whiteSpace=wrap;rounded=0;strokeWidth=1;fontStyle=1" vertex="1" parent="1">
          <mxGeometry x="240" y="580" width="140" height="20" as="geometry" />
        </mxCell>
        <mxCell id="L32rWy5U-hmD1AWpwfB_-113" value="" style="shape=image;verticalLabelPosition=bottom;labelBackgroundColor=#ffffff;verticalAlign=top;aspect=fixed;imageAspect=0;image=data:image/png,iVBORw0KGgoAAAANSUhEUgAAAmQAAAE1CAYAAABJK/xzAAAgAElEQVR4Aey92ZNXxbr+yT/grVf2jRdGtBdGtBF22GEYbRthG7Zt2Iatbdv409bWVlv9ORxEOCoyCSrTYRARkQ2ywcOowJHDZoOMm1E2IIObSeZ5BpkhOz7pfpZZi/Udqr5V1Jeq541YtdbK8c0nc6188n1zfatDsBgBI2AEjIARMAJGwAi0KgIdWrV2V24EjIARMAJGwAgYASMQTMg8CIyAETACRsAIGAEj0MoImJC1cge4eiNgBIyAETACRsAImJB5DBgBI2AEjIARMAJGoJURMCFr5Q5w9UbACBgBI2AEjIARMCHzGDACRsAIGAEjYASMQCsjYELWyh3g6o2AETACRsAIGAEjYELmMWAEjIARMAJGwAgYgVZGwISsGTrg1KlTYcmSJWHSpElh+PDh8eCaMOLag2zd/lvYvO1MyePq1faAgttoBIyAETACRqBpCDQrITt06FD4ed3a8NtvvzVNmxsw1+LFizMSJjKWP0PM2rr8N3fMC+WOM79dbusQuH1GwAgYASNgBJqMQLMQsiWLF4X3u74bOr3zX0PnTm/F84D+n4b9+/c1WbEbIePEiRMrkjGRMyxmbVkgY4NG/BrOnrvc4Ph6/O5I1EzI2nLvu21GwAgYASNQKwI1E7KZM76PBGzOX/4znDp1Mupz8OCBMOTfBoRuH3QNv/12plYd6zJ/KcuYlBURS8/kaasCIft81M5rmjdu0t4GhOzXnWfDi2/+HP7b/2FBuOd/WRo+Hrg1nDt/JeabPe9w+F//z1XxGgL3X7tsCJ26bYr3+w6cD/+168aYh7r+5/99RVi09FhW3/T/PBge+y8/hf/+gSWh39Dt4fSZ3y1ypfJRPmXkj4f+j5WxzKf+n7+H72cdzMqvdDFl5oHw+HOrY7vQedPmM2HF6hPXlE99H/TZHIub+N3+2F6w4Ojc45eAXqPG7S7M9+/T9sX0f560t4E6r/zL+jBs1I4YVqQHEf824tfQpec/GuTTzb/2/kcY+MWvuvXZCBgBI2AEWgGBmggZBAyr2PhxY69R/cSJ42HSv08I+/ftCyO+GBZ6dv/gmmP3rl3h6NEjYeSI4eGDf+0cyyLd+p/XhXPnzl2TnrhePbqFnTt+jXHbt2/L6oX4Ebd+/bpw5cqVMGXyv4fu3f41ljvx38eH06dPx7SDB/UPC+bPy/KlF+T/+99/SoMKr9kXlhKt9FoZ0rD0uq3uKauGkEGSIEz/3X2Lw1ff7ArdP9sSyRpEC4FwUA7yxZ92RvI1a+6heP/0/7sm5oXEcNz/vy2PJObixSthx66zMR9EZ8qM/fF6zLd7yuY7e/Zy+HbavnhQ1qMdV8VrykYgSKPH747Xlf7MmX841vnyv6yPJI6yIHZ79p7L6qBdb3+wMd7/uPhoWPn3EzEPJAki2uOfWEDG/v7zyZiu779ti2mGjNwR7zf+43SAfEHqJLv2nItpIKel9Lhy5WokY5DMIun48pqM+BbFO8wIGAEjYARaHoGaCBnkB0K25u+ry2r606qVYcH8H8OwIYOiS5NrjpMnT4T+/fpGd+fChfMDByQKt+f58+djGtIR1qd3j3hPmsuXL4cunf8lfDthXFbvksULoy4Qs28n/DleE0960k4Y/3taiN+M6dOyfOkFbaGcSlLKOpYSr1LXbdVKVg0hw+JEuqUrj2cQ9x+2PYbt3X8+I2QXLlyJpA1rD3L+/JXQtdc/wrxFR7J8WMQo6+DhC+EfW89Eq9LlK79/OQBh+b9fX1cxnwp79v9bG8mS7jk3hpBBFrH6Sfi44b+8ujZgDZSg6+Tpv5M9wv664EgkSZcu//G1AxZDWc9Is2b9ydhGCKeEfJS19dff92lCXCG4lFNOD4ifCZlQ9NkIGAEjUH8I1ETIVixfFonPrp3XuqqKmvqfs2ZGcqS4ixcvhLFjvg5r1/yxcl+27G+xzOPH/5i0/21gvzBq5BfKFs+QLogW1jBk0IDPwvDPh0SyBrHChSpZ+rfF0UoHkWsOQtaYvWN5YtZW95JBEiq5LHFPkg7CJcGtR9iS5ccyQgaxwHV56dIfZIXr/5hzKHw8aGskFuTh2LPvnIoK//GXQ1nc3IW/k7dq8pUiZBAdLF0QmZFjd0Xyl1WWXEDe2CtXTtA1JWSkhVR9OXZXA1csbktJESEDO+rDaoZAPrGuIeX0gJChA+0BW/ri542/fwFsC1mEz3+MgBEwAq2KQE2E7Nft2yJ54svKaiRPyMgDSVq5YlnArdjvsz6xPAjVkSOHsyKLCNmvv26Paf/xj03R0kae1T+tCnv27I7hO37dnuVPLyBkEDnck5998nH4j5nTo9uUNNVayPIkK71XXWlY/lpp2tKZyb4SIeszaFskDbJk0f51G05ForBs1fGMkEGAcCMePX4xQgSpYn8YdRD32dDtYcDnv1vWUkKG207Eo/eArZHQVZOvFCHDBfnnyXvj/ixcrViwUosWytEW9Br777+7SEv1KWlSQoa1jzDKxZU5fsq+8D8+sizuI1MZRYSMOKxo4MNPjVAG6SrpAS7oTz24RSG95MUNakImxH02AkbACLQeAjURsgvnz0cSM/s/f7imBezZgmCtWrk8i8sTMshY3z49YxmkZd/XtKmT4n0lQkahfDTA/rX5P86Nbk4sblu3bI752Z9WJBAy9pH9OO+vkYxRBl+IkteErAix6sKY3CsRMjajk279pt/381EyLjfCIF/aQ8YmfwiH3IA/rf3ddcdeKwkEiHy7954Lf1t5PMi9STwb1LEWVcqnskoRsnQPmfamsWcrLxApXKoSPiTAupa6ZtE1JWS4NLFWieBBqNBZHzFQVilCtirZfwbJ0m+8ldMj77I8fPRCxO9PE/aYkKnjfDYCRsAItCICNREy9P60b69ocUpdjIRDriA4a9b8sb8sT8hEnthjJpn717/EfPymmaTIQkYcX3hCpogfM3pUTH78+LGYH9enBFIIETtz+vQ1Lkvi0BO3a7WErJzLUnXmrWK6J29bFAhHJUImEvDk86vjpnb2lGEh4utERISM68XLjkXCsOBvR6NbkvLZb3bi5KUYB3khbMu23+Imf67/c+7huG8Lq1jcVL/v9w3vpfKpH0oRMrn12K/GRn0Ij8iP8nL+/OvfSSWWJ/Th69C8NQ39UkIGQYK0YeXaf/B8Ztl7/b0NWdGlCBmb9MGNMvl6UlJOD+rDVYlFDOscrlHys//OFjIh6LMRMAJGoPUQqJmQQZzYhI8LkA30Gzasj/vCIDe4BLGCSfKEDCsY6aZOmRTJEh8J6HfM9u79wwVUipAdOnQw5qeMTZt+/1KPuvgNNIgaZGvbtq3xi0ztQYOYjRv7p4BLkz1w6IgL89KlS1UTsnKb+tVWEbD8uU1v6v/62r2Esor9dvb3cbBkxbGMTEAIIEOQLIQvHAmTsDEfSxkEBBelSBhnrFekxTKGlYkvNbnngDxhRULK5Uvr+ZcPf/95DYWpLpUJwUstXkrHmY8O+OkIpYUQ0s5UiMPKJoG4yZ1KHNZAiBxESyJCtnP3H5v6FSeXrTb3E15ODwiZ9ONMPVgnEax1qWVOdfhsBIyAETAC1w+BmgkZqkKGhg4emJEpCBIE6HTu3wblCRl5cVGKhHFmMz75+bFZCS7Gr78aodsGZ1ye6eZ+IvkpDYgW5XB8PvTfgixuEDKFc+anNLQHjvu03gYVJTf+2YsEjCZeHjp8If6AbGOyQ7wOHDpfaKWiHPaaad9ZWm6lfGnaWq4hRIePXGhUEUeOXWw0DlTwYd/NkdAVVdYUPYrKcZgRMAJGwAhcPwSahZBJXb54PHL4cLQ2KayaM1a0Y8eOhqtF/qAyBZCen8SYNnVyYSp+AqOl/o1TKSuZFMlbxrhvq9YxtdnnlkeA/XK4KbFy8dWpxQgYASNgBNoGAs1KyK4nJH9bsiiM/npktHalHwBcTx3K7SXLE7K2unfseuLtukL8SpK9Z3xpajECRsAIGIG2g8ANS8hwifKFJPvAWlNKWcpSQmbLWGv2kOs2AkbACBgBI1D/CNywhKyeoGVPGaQrtZhxTVhb/VdJ9YS/dTECRsAIGAEjcKMjYEJ2o/dgHeiffr0nde78nxZnX/Ud+udGd35VXmn5+QXk//rnD5QSzk9cIOkXk/oysVf/33/ln3Rf/On335jjrPKIR/R7YYTrf2RSrtJRH0L9CtP/hkRPhaG/RGGcJW29fWqnz0bACBgBI3B9EDAhuz44uxYjYASMgBEwAkbACJREwISsJDSOMAJGwAgYASNgBIzA9UHAhOz64OxajIARMAJGwAgYASNQEgETspLQOMIIGAEjYASMgBEwAtcHAROy64OzazECRsAIGAEjYASMQEkETMhKQuMII2AEjIARMAJGwAhcHwRMyK4Pzq7FCBgBI2AEjIARMAIlETAhKwmNI4yAETACRsAIGAEjcH0QMCG7Pji7FiNgBIyAETACRsAIlETAhKwkNI4wAkbACBgBI2AEjMD1QcCE7Prg7FqMgBEwAkbACBgBI1ASAROyktA4wggYASNgBIyAETAC1wcBE7Lrg3O7qeW3334Lq1evDjNnzgwbN24Mly9fbjdtr6ahv/zySzh58uQ1Sa9evRp++umncOXKlWvibqSAUu1TG/bu3RsOHDig28LzuXPnAuMoPfLj6NixY2H79u2F+YsCd+3aFQ4dOlQUFU6dOhXH6qVLlwrjmyOQdp84caKwKNoGbufPny+MzwdeuHAhbNq0KZTS9/jx42Hz5s35bCXvy+nGuEQ3+qJI0GHLli1FUTGssf1UsiBHGIF2gIAJWTvo5OvRRF7cI0eODB06dGhw3HnnneHnn3++HirUfR0//PBDxGbOnDnX6Pr+++/HuFIT3zUZ6jCgXPtQd+fOneGmm24Kb7/9dlntb7755gZjiDE1ffr0mAfy9Nhjj2Xxt956a9iwYUPJ8hh7d911V5b+4YcfDhAWhDHbrVu3LA7d+vTpU7KspkSAyT333JPV8cQTT4Q1a9ZkRfXv3z+k7e3Zs2dZUt61a9eIIZig79SpU7OyTp8+HTp27JjVddttt4Xvvvsui89fVNJt4sSJ4ZZbbsnKo24tGM6ePRtefvnlTBf6oW/fvtkCrLH9lNfN90agPSJgQtYee70F2jxo0KD44maSeOGFF8LAgQPDfffdF8N4qbNSbq+yZ8+e8Nprr2UTW0rIVq5cGR566KEs7kYkZOXapz7HknLvvffGdpYjZFhrIBtTpkyJFjCsYBzC5amnngqQfKwypIXgQAYuXryoqrIzBIW45557Lhw9ejRabiEpjE/kq6++inV9/fXX0TpFX0COBg8enJVRywUWMZ6HDz/8MOp/+PDh2NfUgVWMcUBbIUYQHazK3M+aNauw2hEjRsT4hQsXBtrWq1eveC8L1bvvvhvbC15Y0SCX1F9kGaykG6QRXYYOHRp1l27ffPNN1O3TTz+NZWOJoy2K//LLL2N8Y/qpsLEONALtEAETsnbY6c3d5CNHjsSXNy/wRYsWZcUzaTz44IPhnXfeiW4PIpiYsQLcfffd8YUOafvxxx+zPLiWmDCZtLBsMKmkrhlW6Xfcccc1x+zZs2MZu3fvjuSHiRd9br/99myCgziQlzolTDCEsbpvKUFnSESRBYk2Pvnkk2HYsGFRXxGPUrqgL8RGxHfdunVZ0nHjxsV6iCPN8uXLs7gHHnggaDLFqoLVZtmyZVl8LRfl2qdye/ToEXEHh5SQLV68OOK/du3amFQYnTlzJhKu1I2Hq5c+HT16tIoN5CNsyZIlMQwL0auvvhqvITbEibAQCMEgDBIB7hA2LGWS119/PY4Z3ddyxq2IBU4WOcpioUL9EKJ9+/aF+fPnZ1XQl8SNHz8+C0svGCvPPvtsFsRzQV/zjDBuyDthwoQYT5toI88m57xU0q1Lly7xGZRFjPyPP/54YBwhkMPJkydnxUKI0aVz587RJY8u5fopy+gLI2AEMgRMyDIofNFUBJgMeQHzQi4nTBK4OUibPyBUTDByL+GWkrsEa4kkdVelZXz77bcxieKZaDmUBgvdtm3brtETlxFpmIhbSrDkMLFhqaCu1EIGgUSmTZsW48oRMtx25McqxMQLqYXgUPakSZNi3DPPPBPGjh2b4YibEIHgDhgwIFpW6CcsdujVHFKufZQP6UJv8Kd/84SMNoiQ9e7dO6YljDwcIsvr16+P9wsWLMjUhtiQBvwQCBltQ7744osYl1rPRPjoC7ACl5R0QNYrjeNYeBP+QIxoF4uEVHDvDR8+PBJTxiwkqkjQi8VMKpT31ltvRdIJDkOGDMn6HtLNPs5qJK8bZDVduFAGZCuvu8rGNap+qKaflM9nI2AE/kDAhOwPLHzVRARY0fMyxipVTpgcSMcxb968uKoXQeNFz8TJix0rBoLFh7SyeBB2//33xzBIAASOiYM0EDL2tUCwmJCxrGjVTjwTfkrIIIcc/fr1i/lbkpAJkyJCprhqCBnWCQinhL1TuDuxADExQ3YkuKyYwLF0ICJkn3/+eSSqqdVReWo9F7UPIgyxxqKC5AlZvk4RaqwrENdHH3009g/jYsWKFfGaj0YkkCn6l/2LeRHZTsO1eMBChHuNvKTDIidSQVhLCMSJsufOndugeKzK9BVxjOfUopYmJB7ClQpj4umnn46WaeI5sDB/8sknsc/BvhzJV1l53dhrl4410skFqjw647ZEfwgc/dHYflI5PhuB9o5Ay7x52juq7az92j/CS7mcsFeHCSMlDnI5Ec6kKMHKA4mgzNS1JquZrBrsVSGvLGRYG5homdg0yRG/atWqjJBxnz9uBEJGe4r2N2HdoD1gA4HRQXquEbCEtBGWbgQX3s1xLiJkWPNwW0N+kUqEDDf3wYMHM3XkioN0iNCnrli+yKTtbEDPiwhXGg4ZIj2EHsKObulY4B6MmlPoH+0hHDVqVMmiZUlkkVIk6MUCIhWsYJStvOyXk8gaOGPGDAVdcy6lG3hDylL56KOPrll08fxqbMmy19h+SuvwtRFozwiYkLXn3m+mtmNt0KQmFxlFM+FhNWNS5sWtCRIrl0RWK/KnG/+x7BDGJMTEgvBzCYTh1pGkhAyrGKSDNJAT9q4xWXCPVSWti3Qciq93QibShYUrL7SbNrJvjL1a6aF9PLQTMgSeuMdaQvKEjM3l6EWdqQuZe7AvJSLbisfyAlHSXkXtFySefVjUsXTpUiXPzt9//32Mg+RJ5NoFT4QzJA0XMCSNr10rWXpVVjVnysdihY5jxoxpkAWSygIiFQgVfVUk7HVkv14q6MoGe6yk1KE9ZKSh3YSV6u9yuuFWThdOlAfxwyIr4ZlSX6bPbmP7SeX5bATaOwImZO19BDRD+3F/4XLk5Y9lCoJAmFxGhLNhGSsV1xyygmiTM5MQEwgb/LXRWV+hiYBBNMj7wQcfZFqnLku5oyiL+iGEXJMntZAxiUikY70TMvRl8n3llVekemD/Ge0DLwhoSnSZ7D/++ONsbxXp2EMmNzB4NLfkCRmuN8hCeqAHVp286026QNToU4lIBV/xQtTID2mSsLGc/oVM5UULhZTA0c8iXIS/9NJLDfaQEVfKQpUvv5p7WcaKLHiQHtrDOJXQhxrvCtMZqxX7BiUio5SNux4c0j1meh70PCmfzuV000/YpO5TsCEPwm+T8RyxCGAfXyqN7ac0r6+NQHtGwISsPfd+M7ZdriAmBV7UTDRcc2AhQ9jXxKpb4UzMumYC0CqfMFxzfFHGNRPBZ599lqXlnrwc1EUaJjF+WFXl8XUbLhfds2dNFrIblZCxL4j2QE5wC7GBnXZDPrUZnn0+4Kh7Tcb0B4QMoibs5EZsrmGQJ2RF5eZdlvxOGHsE6RtERADiCInX72opHsJB/7GxH8LFWGBzvoQPALQHkTCsa5A8MIGAgR+uc0TjgUUBX/e+9957sWx9aKEym3oWIcK6R3vSA1cse6/Qh3q51hjv3r17rJLN8WCzdevWeE+bSc9+PL4YhqDR/5AxhE33xLOFAOsVbaffZSFk/IgIV9JNX7Ri3YPsauHCuEPk6sVim7ZL2wsq9VMsxH+MgBFogIAJWQM4fFMLAriNcKswKXAw+fJbSemmYlwb2rhNGiZXyJfcVOwFY5JVGbhIIFra/K/wojMTF1Y0kTR0YQ8VadFDE3BKyCApxL/xxhu1NL2qvPwOFXWlX1kqozaUp1gpTmf2SzFBq+0QK4gmQhxtUBwTNROwhIkZ4oFo03X6swVKV8u5XPtULhYeXMkS7XOSy5H2d+rUKSP09FX6lS0uPn5+Qe1kfKS//M+YS91qWHJkvaUsLIwaa+jAniwtHhgv5fZbSedqz9ooL13Ts0gfBDR9ZsjDwgURgYQ8IRBoyJrKgWiyd0zCHkxcnornOWKrgARsIFJINbpB7PQsYYHVhxki3qonPcu6WKmfpJPPRsAI/IGACdkfWPiqmRBgYpBLslSRuGlY5Zey0jC5QzIkImSE54UfxGRSkCWBsvfv359P1mbuwSUlIWnDhGsadiNes7+p3PjATZbuW6rURtx7uNKLBILW2uOFtqbjvUhPhdEO2lNKILXN1R6wgTyWek5L6aDwxvaT8vlsBNojAiZk7bHXb8A2447BklE0CeMeIW7Hjh03YMusshEwAkbACBiBEEzIPAqMgBEwAkbACBgBI9DKCJiQtXIHuHojYASMgBEwAkbACJiQeQwYASNgBIyAETACRqCVETAha+UOcPVGwAgYASNgBIyAETAh8xgwAkbACBgBI2AEjEArI2BC1sod4OqNgBEwAkbACBgBI2BC5jFgBIyAETACRsAIGIFWRsCErJU7wNUbASNgBIyAETACRsCEzGPACBgBI2AEjIARMAKtjIAJWSt3gKs3AkbACBgBI2AEjIAJmceAETACRsAIGAEjYARaGQETslbugLZQPf/M2Icx8BjwGPAY8BjwGGj6GDAhawuMqJXb4Aew6Q+gsTN2HgMeAx4DHgOMAROyViYzbaF6v0z8MvEY8BjwGPAY8BiobQyYkLUFRtTKbfBDWNtDaPyMn8eAx4DHgMeACVkrkxlXbwSMgBEwAkbACBgBEzKPASNgBIyAETACRsAItDICJmSt3AGu3ggYASNgBIyAETACJmQeA0bACBgBI2AEjIARaGUETMhauQNcvREwAkbACBgBI2AETMg8BoyAETACRsAIGAEj0MoImJC1cge4eiNgBIyAETACRsAImJB5DBgBI2AEjIARMAJGoJURMCFr5Q5w9UbACBgBI2AEjIARMCHzGDACRsAIGAEjYASMQCsjYELWyh3g6o2AETACRsAIGAEjYELmMWAEjIARMAJGwAgYgVZGwISslTvA1RuBtoTAL7/8Ek6ePFmySXv37g0HDhwoGU/EuXPnQv4fLV++fLlBnmPHjoXt27c3CKt0U063LVu2hIsXL1YqosnxtPvEiROF+Wkbup0/f74wPh944cKFsGnTpnDp0qV8VLw/fvx42Lx5c2FcUWA53a5evRp1oz+KBB3ArpQ0pZ9KlXWjhG/cuDGcOnWqUF3G2IYNG8LZs2cL41s6cMeOHWHmzJlh/fr1LV3VNeWXw+WaxO00wISsnXa8m20EmhuBH374IXTo0CHMmTOnsOidO3eGm266Kbz99tuF8Qq8+eabYzmUpWP69Okxmonusccey8JvvfXWOMEpb6lzKd369+8fKIN60O31118Phw8fLlVMo8Op95577sn0feKJJ8KaNWuycqg/bW/Pnj3DlStXsvj8RdeuXaOe0nfq1KlZktOnT4eOHTtmdd12223hu+++y+LzF5V0mzhxYrjllluy8qhbukEoXn755UwXMOzbt28QcW5qP+V1vNHuIcv0zeTJkwtV37ZtW4xftmxZYXxLBvJcatzQl9dTKuFyPXWp57pMyOq5d6ybEbgBENizZ0947bXXsom7iJBhSbn33ntjmnKEDGsNk8aUKVOiBQwrGIcsNE899VS48847o1WGtBAcyEAp61Y53ZYuXRrrwmIAkcDSAzl6+umnmwV1LGKQvA8//DDqD9F76KGHYh3UpwkSYgTRQQ/aPmvWrML6R4wYEeMXLlwYIF+9evWK97JQvfvuuxEL8GIC7NOnT6z/0KFD15RXSTdII7oMHTo06i7dvvnmm1jWp59+GsvGEkdbFP/ll1/G+Mb20zUK3qABlYgHVtBVq1aFM2fOXPcWvvXWWwGSjtXzekslXK63PvVanwlZvfaM9TICNwgCrLYhSaWsUDSjR48e4b777ovpUkK2ePHicMcdd4S1a9fG1qoMJiwIV+rGwxUKSRg9enSGDPkIW7JkSQzDQvTqq69m8eV0mz17dvjss8+ytFw88sgjUccGgU28wa3YrVu3gAtRMnDgwKgvhGjfvn1h/vz5igrr1q2LcePHj8/C0ou77rorPPvss1kQJBfCB/GCsILDhAkTYjyTLkTpyJEjmdUqyxhCdHmW061Lly6ROMoiRt7HH388PPDAA7EYyGFqBYIQo0vnzp2jy7pSP6W6NOV69+7dcdzQXnCh7ocffjgQLoH43H///TGOMTZmzJgYpTxy+a5evTqWxdiTQJzTcabwonO/fv3C7bffHq2JjHPaLmyo/+OPP45xd999d3QVogt9/cwzz4ROnTo1KJI+0YIA1z7XLBKwVL733nvZ8zBt2rTYHy+99FKMHz58eINy8jfUA0boRv1Y6nieIGmUTdyTTz6Z4Uc86XClS7744otoneb++++/j9eDBw+OJA8dWZSx3UBSDhel8bkhAiZkDfHwnREwAo1EAOLExI0lhhd+3kIG6SKclzyTZ56QQeZEyHr37h3TEkYeDlxhCPteuF+wYEGmIcSGMCYoBELGxCCppJvScYYgURaTVEsIBIl2MXmngnuPCZUJEGsfJKpImDRxaaZCeeiLlQzdhwwZEjHmGlcp+3aqkbxuTM4Q6FQgW3ndFY9rVP1QTT8pX1PPai91QhQTlc8AACAASURBVLqHDRsW68cyh+AeFwZjx46NZIP7SZMmxbHGtdyGWPu4f/PNN2PexrgVIW3khRjhfhbpESHTPeMSMp2WDWEhr6y/WJFIz3iHLIrkYaUEe9JqbH/11VfxnvHy4osvxsVQOSyxBkOmsZChG2SMPqbMd955J+oOqaI8SBX73IhL3evdu3eP+alH7Sb9oEGDIrEkPUQ9jS+FSzld23OcCVl77n233Qg0IwJFhIxN3azA9aLOE7J89dofxgsfYvfoo4/GiYEJf8WKFfEai4YEIshEMHLkSAUVnot0SxNikYPAMCEePHgwjWq2a4gTus6dO7dBmYsWLcomcibJ1KKWJiQvhCsVJlmsKJRBPMcLL7wQPvnkk8yyogk/zZe/zuuGtYm+SEUu0DSMa9yW4AaBoz9q6ad82aXuRciw0EjeeOONSCi4x30LFkePHlV0tH4y/rAeQj7ACHnwwQdjWpFNxhLtgaRWEkg0pEPCYoF6U0IGlpKUkO3atSum1WICVzV5f/3118wFnLqvBwwYEOMZHyJkYF2tQOZEslU3Fj2JXOhYEKslZOmzCNmTdboSLqrT54YImJA1xMN3RsAINBGBItLDHi8mPO1bqUTI2BuVEiK54iAdWHuYsJYvX55pyGqeMDagl5Mi3ZQe0igy9tNPPym42c5M7EyG6Dlq1KiS5cqSyGb5IoEkYFVJBb0pW3mfe+65LFru3xkzZmRh+YtSuoF3SiTI99FHH2UWEpWDZRNyg6VOlr1a+knlVjqLkKUuX5FQ8uJyBG8IvQ6sOYQxFl955ZVoMcIlTpgss7QBIgqprSTaF6V9daTHskV5KSHDDSlJCRlhuDRl1aPv2GeJ4EqnHPpA+vPsEAYJEiFrzNeaKSHTnj+5+qmTsiiffq6WkIGBhOecNlSDi/L43BABE7KGePjOCBiBJiKQJz1sLucFD5FgMtSEyD0TeClJ9y2RhlU9L3smS8pj75dEbkZcMuUkr5vSYkFBF3RKV/uKr/UM4WFyR2/tYVKZEIP8zyMwoUFwigSrQ/7rOKwSuNxEULSHjPyQW+ottb+onG64lSEAqTChQ3Qk4KW+hNRKauknlVHprPam5BwSI+wgNlhmsQDlD0gTX+1qLHHG6sQZlybn9OvVUrposYBLUaKwlJDh0pPkCRljgvo0PiFaCO5BwiFHef0pQ4RM5VZzTgmZyLq2CpBfZBK3uAhZ+kywh43xhshlmdbL2GD8CoNyuKT5fP0HAiZkf2DhKyNgBGpAQJOK9pAxyUEW0oMJE6tO3vWmaiFHuO0kIhVMahA18r///vuKjpYIJi72ipWTvG6kxSJAfZTJBNQSwiSIfkUWPEgPdadfiGIxgbgWCVYrNoZLREYpW9aNdI8Z1g/qTq1Iysu5nG647cibuk+ZjMmDsNkbMgbxYR9fKrX0U1pOuetKhEwkOP2aEbIqCyNEmPahP2Qfwf2L25LwfJtK6QImWLAkuKPJXy0h0x5IiAz55GLF6sY9rmjJypUr4xe7fK1bKyET4Updvuypo062BwjfdOzwUUc1hAx9K+GiNvncEAETsoZ4+M4IGIEmIlBEevJF5V2WP//8c9x3wqofEREYN25c/BJNv6uleAgHRIC9OnzFyIufr9UkbIhOV+YKL9INFxcTEMSI+nTwBVlziAgRE77K1hkrAnuvqB/LA9dyU2EdQdgcz56crVu3xnvtT2I/Hj/nAUGDvMltpY3fuKOwbGBZhPBBahHaKyJcSTd90QqxgeyyYR1d9ZEAbeL+888/b9A2bZSv1E9RoRr+iDCUspBpTx1jgy8aZRFLCSsEjDawNw7hzD3h1YryMOaw0rLYoIxqCRn10I/kSffsYXFknEPA582bFyBjjHUIO5bVWgkZZVA2VkQIPT+lIrf9/v37M+sqLlPw4wtLdKyWkFXCpVp821s6E7L21uNurxFoIQRYufPSloWsqBomAb7qksh1IpcjRIVP9CESlMWkxG+SSbBssFInjgM3SfrL/xC+1K2mfEW6yRqisnQuZaFSWdWetVFe5aZn/TwDBBRXpOLIo305uGYJ1z4fJlG5sgjHusfeMQnWIFlaiGfyTF1SYCNrUDW6QezAn7LSDzNEbgnPH9r/VqmfpHNTz5BU6k43tWP9YtxItDmfdLTj+eefb/CzDJBT4oSvSKpIq8opd8YayH404aCPUjRm0Se1QuVdlpSt/Vx5Nyn6yM1P+ZAjiDvCXkTCGiNYNyF0ErYUYCGU7ozD1EUJ8Vcc/c+PJouQydWqsjijHxgjlXBJ8/n6DwQa16N/5POVETACRqDFEGB/E1YgSEiR4OpJ9y0VpbmRwmhr+htO5XRnIzruylICqcXK0RzCxAp5LNUPlepo7X5Cf7Blf1RLClZKfdTQ3PVAgFPXa3OXTx/JVZovG3d6pe0A+TzpfUviktbTVq5NyNpKT7odRsAIGAEj0GwI8PMTuPJKHan1sdkqbWJB/F5YKT0J539YWuofAROy+u8ja2gEjIARMALXGQHcgrj0Sh387lm9CO7IUnoSzleRlvpHwISs/vvIGhoBI2AEjIARMAJtHAETsjbewW6eETACRsAIGAEjUP8ImJDVfx9ZQyNgBIyAETACRqCNI2BC1sY72M0zAkbACBgBI2AE6h8BE7L67yNraASMgBEwAkbACLRxBEzI2ngHu3lGwAgYASNgBIxA/SNgQlb/fWQNjYARMAJGwAgYgTaOgAlZG+9gN88IGAEjYASMgBGofwRMyOq/j6yhETACRsAIGAEj0MYRMCFr4x3s5hkBI2AEjIARMAL1j4AJWf33Ud1ryD8z9mEMPAY8BjwGPAY8Bpo+BkzI6p7u1L+CfgCb/gAaO2PnMeAx4DHgMcAYMCGrf75T9xr6ZeKXiceAx4DHgMeAx0BtY8CErO7pTv0r6IewtofQ+Bk/jwGPAY8BjwETsvrnO9bQCBgBI2AEjIARaOMImJC18Q5284yAETACRsAIGIH6R8CErP77yBoaASNgBIyAETACbRwBE7I23sFunhEwAkbACBgBI1D/CJiQ1X8fWUMjYASMgBEwAkagjSNgQtbGO9jNMwJGwAgYASNgBOofAROy+u8ja2gEjIARMAJGwAi0cQRMyNp4B7t5RsAIGAEjYASMQP0jYEJW/31kDY2AETACRsAIGIE2joAJWRvvYDfPCBgBI2AEjIARqH8ETMjqv4+soREwAkbACBgBI9DGETAha+Md7OYZASNgBIyAETAC9Y+ACVn995E1NAI3DAK//PJLOHnyZEl99+7dGw4cOFAynohz586F/D9avnz5coM8x44dC9u3b28QVummnG5btmwJFy9erFREk+Np94kTJwrz0zZ0O3/+fGF8PvDChQth06ZN4dKlS/moeH/8+PGwefPmwriiwHK6Xb16NepGfxQJOoBdKWlKP5Uqy+HNj8COHTvCzJkzw5o1a8KGDRvC2bNnm7+SKkpkfFF/qTFdRRE1Jbly5UpYu3ZtxILnobXEhKy1kHe9RqCNIfDDDz+EDh06hDlz5hS2bOfOneGmm24Kb7/9dmG8Am+++eZYDmXpmD59eow+depUeOyxx7LwW2+9Nb7IlbfUuZRu/fv3D5RBPej2+uuvh8OHD5cqptHh1HvPPfdk+j7xxBNx8lNB1J+2t2fPnoHJoZR07do16il9p06dmiU9ffp06NixY1bXbbfdFr777rssPn9RSbeJEyeGW265JSuPuqUbE/fLL7+c6QKGffv2DSLOTe2nvI71eD979uzwzjvv1KNqjdKJ51Tj6NVXX43Xy5Yta1QZzZX4xx9/jPXv37+/uYpsVDndunWL9fMszpgxo1F5mzOxCVlzoumyjEA7RGDPnj3htddeiy80XvBFhIyV77333hvTlCNkrE4pY8qUKdEChhWMQxaap556Ktx5553RKkNaCA5koJR1q5xuS5cujXVhIYBIYOnhhfz00083Sy9iEYPkffjhh1F/iN5DDz0U66A+TYgQI4gOetD2WbNmFdY/YsSIGL9w4cIA+erVq1e8l4Xq3XffjViAF1a0Pn36xPoPHTp0TXmVdMNigi5Dhw6Nuku3b775Jpb16aefxrKxxNEWxX/55ZcxvrH9dI2CdRzA+Hj88cfrWMPqVHvrrbcCpB0rKNbZVatWhTNnzlSXuZlTtTYhu/3228Mrr7zSzK1qfHEmZI3HzDmMgBFIEMByAkkqZYUiaY8ePcJ9990X06WEbPHixeGOO+6I7gLSqQwmBghX6sbDFQpJGD16dFY7bgbClixZEsOwELHal5TTDUvHZ599pqTx/Mgjj0QdGwQ28Qa3IitvXIiSgQMHRn0hRPv27Qvz589XVFi3bl2MGz9+fBaWXtx1113h2WefzYIguRA+iBeEFRwmTJgQ45lkIUpHjhzJrFZZxhCiy7Ocbl26dInEURYx8kJCHnjggVgM5HDy5MlZkRBidOncuXN0WVfqpyxjEy+2bdsWxw2uXskXX3wRrafcf//99/F68ODBkXRAtFk04A5HyE9b0BkrIGMGkisZN25cHAfEs5BYvnx5jMKiSRjtI7yS1Kon5UOCqYt6X3jhhThOCKePhw0bFtsnPfUcEM9CgD7Gkkn7WbiQHunUqVPWDp6/v/3tbxFPxiBy//33h48//jhic/fdd4c///nPEc9PPvkklkNZo0aNis8d8ZTPmEkXRqUwpHyebzAnH/VDDsG0GgsZffvwww+HDz74IMvPwiEVyCVtABfKHzNmTBbNO+G9994L6E07iKdu0vKOQljkYIknjDQsduTOnTZtWnwWXnrppVj/8OHDI9bo8/zzz8c8PKtYG1mgqI70vcW2DYg97Wf8oQ/vOhOyrJt8YQSMQFMQgDgxcWOJ4cWWt5BBughncuJFlSdkkDmIFdK7d++YljDycOAKQ9avXx/vFyxYEO/5A7EhDS9JBELGxCuppJvScYYgURaTQ0sIBIl2sRpPBfceL3UmBl7ekKgiYXLApZkK5aEvEwi6DxkyJGLMNa7SjRs3pslLXud1e/LJJ7PJSZkgW3ndFYdrVP1QTT8pX1PP7DeiPix5ku7du0dywj2TH/HgOWjQoEhAuIdIIpAx8J40aVIkKcSRHyGM+2eeeSaMHTs2wxOXO+OUiZxxXI1rq1Y9cdWjC5ZgyDZ10+c8b4wZxUGORCxYCCDPPfdcjIfMEc9ig/TohHUYDLCQQay1sJHLkrFGWp4nFgHCk/RfffVVePDBB2M86SB+LLhIj/W2EobEUyZ5IX0iY+SvhpBJF8gMusjdiosdoZ8oi/FP/zGWuadfEbn1IV/E/elPf4rECIzpU55HSBLls4CSfowHhDopj7H14osvxkWksIYojhw5MsYpDWQRizH3LJxYSPEcUQdxPFfERS9DrMF/jIARMAI1IlBEyNjUzYtHE2GekOWr1P4wXroQu0cffTS+rJjwV6xYEa9Xr16dZWNi4mXGS7CcFOmWpmfFzgucSeLgwYNpVLNd68U+d+7cBmUuWrQo1ks7mCBSi1qakHgIVypMqqy0KYN4DqwoWDK0+pa7N82Xv87rxsRCX6QiF2gaxjVuS3BjgqM/aumnfNml7qslOulYgUzIesqYZIKVBZa9eH/9619jdRAexqkE9y/twwKENMZlWaue9G/aD5SH2xsCDiGQRQe9IBL0PxYxBJKA3rIKYpUhXsQFAqD8LJaISwkZY0AiEiRL4U8//RTTp4sf9MEih5TDkAUHdaWWYBYahDWGkKWEGNLJ84tgzaKso0ePxnv+QEbVpxAycEmfC8aGFjsQX/Kn1mtIJ2G7du3KCBnjXCKsVSaLANKLBLIw5J4xJvd+ujVhwIABMd4WMiHqsxEwAjUhUER6WHWymsa9glQiZLiNUkLEC44XGZMg1h6uNSlQHpMNYZpkSjWgSDelhTSKjDHRNLdgfYqr3w4doqWiVPmyJGpCzadjEunXr1+DYPSmbOVlYpDI/ZtOXIrTuZRu4J1OyKT/6KOPMguU8mNZgfgxAcuyV0s/qdxK52qJDmRKwjgUPtp/p7GFlQgsOAiDsLEY0AH2XCMtQchK6Um9uF3zwphFT1mPFY+bTsSEtopwEc8zSB657yoRMpEr8oqQaY+ZnidZpkmD9Q5iXwlDLR7Sr6QV1hhCli5cZKFjQQBhpZ3qO86QRcLAAEImjIRbSshE6ETWSSP9WEzJQiYXJvFgTfsl4EJ94IToPcbCkm0SxPF8SUfei4SZkAlBn42AEagJAb2k5bLkhctLhkmFF6JeitwzgZcSXqqpMKkwmWplzd4vidyMuGDKSV43pWUVjS7olFpTFF/rmckJixU4aCJUmUwOWDVS4cUOwSkSXFLsf0mFiYQN9nJZag8ZaSC31Itrq0jK6YZbWRYF5WUCZ7KTgJf6EoIgqaWfVEalswhZ2mfswwEPRAQiLQfdRcgIZ5ymX4rifor7eP65P4xJPj0oE2kKIWuKniI2n3/+edqMeK39lPm9U1iCRMJoa55Up+OwEiHDyiPJ41n0PEFyIGSVMMRKhB6pu3nevHkxrDGELN2vJpKkj4cg1Gnf6Zp4CJnItdqXEjLGEeMa/CXsSUNntkuoLsVxzmMtQiaLWUrIcI1TFgsc6aWzCVmKqq+NgBFoMgL5lzQrWMhCekA2eHHnXW+qFHKE204iUsHkAFEj//vvv6/ouP+FlxsugXKS1420rHCpjzKZ4FtCmPTQr8iCB+mh7nRiwcIBcS0SiEC6ChcZpWzaQj1yu5CfDd6Epa6XtNxyuuECJm9qhWDSIg/CZnomLVxF7ONLpZZ+Ssspdy0CmraNjw6qIWRghfVH7jnwZzM27WUSZjKnHyQQZ/Y6yRpEP6RuRKUrOteiJ+XRnvTrv927d8cxQ7vBPyUWWNloA6QIyZMEwojXwqClCBn1lMNQrtPU8gc5QbfGEDL1H/WBkZ4NLYBkzSOehYqsy5UIGdsr0CUl0bJq8aV0rYSMjzQoH6ubZOXKlXEvngmZEPHZCBiBmhAoIj35AvMuy59//jnu62EPCyIiwBdafPHFy5OXl+IhHExErFTZvMyEpc225MeFk7caEF6kG/usKBtiRH06+IqrOUSECOueytaZFTN7r6ifFTnXeulrczmb49nztHXr1qgObSY9EwY/5wExgLzJdaLNwexRYTLBUgLh09eDtFdEuJJussAwuUF2+bqQuvWRAG3iHuuN2sRZk2SlfqoVXxF1LECME76wRJ9qCBl1szeLsYjlgzEIscQCiejDEvbMQah0L/IHeQP39OOSUu2pVU+NURYkYM/zQN1YeliY0GbGDa5jERHthWtNQibMSmEI/pA2xipEl3FKWxpDyCDN7OPS/ivGACL3Iu8FxoY+jNBipRIhY8sEuvD8sBUAMoeujBGkVkKGNZl3GAQSyyBkjHFLe0zIIsT+YwSMQK0IsHrkRSaXZVF5vITSH9XUPie5HCEqfJKvFzQvLn6TTIKLD0sI9XDghkp/+Z9JNnWrKV+RbnzppHLScykLlcqq9qyN8mnZusbSgUBA9XUcceTRfiJcs4Tppwyw1MjdQTjWPSYMCRYBJmHVwUueiVoCNhAppBrdmCzBn/KYkPRhhsit6knP2v9WqZ+kUy1nWTKkHz/qK0KGFYjwVCBvkCkEdxljUbqTTxYR9iW+8cYbWRzjAWIkgbArX7n/SqH0teiJLvqKkDqxLjOJI/Q3blbpQh/pd+KIL0XI+PIQwUImS2B+Uz/PX2rByuNZ9DyhG4sbpBKGuLUjAfnnc8xeU9qRPsuxoII/cp9C6tR2FiOp8Fxp7HKm39EJgaillkXC6H/2FUrAGDxVPmNHbnm+WCU8lTzW+upYLktZsLXY45lmXKXlxwVaWqivjYARMAL1gACuI6xAkJAiwU2mF2RR/I0WRls1YVTSnT06uCtLCZNANZaGUvnTcNyPkMdS/ZCmLbpu6X7C3VjJXV2kl8KwhuhjBIXpTNn0S5EwwWqyLYrPh9WqJ2OjFFkhrhYM8ro25305DKmHZ7gxOJJHhIxr+k8LmLzejF36D2tiU4XnqLH6NaYuFjepa7UhzWtMSU5rBIyAETACRqCdIsCEz+9ulTvSPXjtFKZGNRuCVg5P4r7++utrLFSNqqSOE5uQ1XHnWDUjYASMgBGoTwSwVLKvqNwhN2h9tqD+tGJPXzk8ieNnXORqrb8W1KaRCVlt+Dm3ETACRsAIGAEjYARqRsCErGYIXYARMAJGwAgYASNgBGpDwISsNvyc2wgYASNgBIyAETACNSNgQlYzhC7ACBgBI2AEjIARMAK1IWBCVht+zm0EjIARMAJGwAgYgZoRMCGrGUIXYASMgBEwAkbACBiB2hAwIasNP+c2AkbACBgBI2AEjEDNCJiQ1QyhCzACRsAIGAEjYASMQG0ImJDVhp9zGwEjYASMgBEwAkagZgRMyGqG0AUYASNgBIyAETACRqA2BEzIasPPuUOI/3yVf8Dqwxh4DHgMeAx4DHgMNG0MmJCZUtWMgB++pj18xs24eQx4DHgMeAxoDJiQ1UxHXIAGk89+sXgMeAx4DHgMeAw0bQyYkJlP1YyAH76mPXzGzbh5DHgMeAx4DGgMmJDVTEdcgBEwAkbACBgBI2AEakPAhKw2/JzbCBgBI2AEjIARMAI1I2BCVjOELsAIGAEjYASMgBEwArUhYEJWG37ObQSMgBEwAkbACBiBmhEwIasZQhdgBIyAETACRsAIGIHaEDAhqw0/5zYCRsAIGAEjYASMQM0ImJDVDKELMAJGwAgYASNgBIxAbQiYkNWGn3MbASNgBIyAETACRqBmBEzIaobQBRgBI2AEjIARMAJGoDYETMhqw8+5jYARMAJGwAgYASNQMwImZDVD6AKMgBEwAkbACBgBI1AbAiZkteHn3EbACBgBI2AEjIARqBkBE7KaIXQBRsAICIFffvklnDx5UrfXnPfu3RsOHDhwTXgacO7cuaB/tqvz5cuX0yTh2LFjYfv27Q3CKt00h26V6igVT7tPnDhRGE3b0O38+fOF8fnACxcuhE2bNoVLly7lo+L98ePHw+bNmwvjigLL6Xb16tWoG/1QJOiwZcuWoqgY1pR+KlnYDRKxcePGcOrUqUJtL168GDZs2BDOnj1bGN/SgTt27AgzZ84M69evb+mqrim/HC7XJG6nASZk7bTj3Wwj0NwI/PDDD6FDhw5hzpw5hUXv3Lkz3HTTTeHtt98ujFfgzTffHMuhLB3Tp0+P0Ux0jz32WBZ+6623xglOeUudm0u3UuWXCqfee+65J9P3iSeeCGvWrMmS9+/fP6Tt7dmzZ7hy5UoWn7/o2rVrxBBcwHLq1KlZktOnT4eOHTtmdd12223hu+++y+LzF5V0mzhxYrjllluy8qhbukEoXn755UwX+qFv375BxLmp/ZTX8Ua7hyzTN5MnTy5Ufdu2bTF+2bJlhfEtGchzqXFDX15PqYTL9dSlnusyIavn3rFuRuAGQGDPnj3htddeyybuIkKGJeXee++NacoRMqw1TBpTpkyJFjCsYByy0Dz11FPhzjvvjFYZ0kJwIANYHoqkOXUrKr9cGBYxSNOHH34Y9T98+HB46KGHIgGDuGiChBhBdLBc0PZZs2YVFjtixIgYv3DhwgD56tWrV7yXherdd9+NWIAXE2CfPn1i/YcOHbqmvEq6QRrRZejQoVF36fbNN9/Esj799NNYNpY42qL4L7/8MsY3tp+uUfAGDahEPLCCrlq1Kpw5c+a6t/Ctt94KkHSsntdbKuFyvfWp1/pMyOq1Z6yXEbhBEGC1DUkqZ4Xq0aNHuO+++2K6lJAtXrw43HHHHWHt2rWxtSqDCQvClbrxcIVCEkaPHp0hQz7ClixZEsOwEL366qtZfC26ZYU08QK3Yrdu3QIuRMnAgQOjvhCiffv2hfnz5ysqrFu3LsaNHz8+C0sv7rrrrvDss89mQZBcCB/EC8IKDhMmTIjxTLoQpSNHjmRWqyxjCNHlWU63Ll26ROIoixh5H3/88fDAAw/EYiCHqRUIQowunTt3ji7rSv2U6tKU6927d8dxQ3vBhboffvjhQLgE4nP//ffHOMbYmDFjYpTyyOW7evXqWBZjTwJxTseZwovO/fr1C7fffnu0JjLOabuwof6PP/44xt19993RVYgu9PUzzzwTOnXq1KBI+uTpp5+OYbj2ucaCiqXyvffey56HadOmxf546aWXYvzw4cMblJO/oR4wQjfqx1LH8wRJo2zinnzyyQw/4kmHK13yxRdfROs0999//328Hjx4cCR56MiijO0GknK4KI3PDREwIWuIh++MgBFoJAIQJyZuLDG88PMWMkgX4bzkmTzzhAwyJ0LWu3fvmJYw8nDgCkPY98L9ggULMg0hNoQxQSEQMiYGSS26qYzmOkOQaBeTdyq495hQmQCx9kGiioRJE5dmKpTHpIqVDByGDBkSMeYaVyn7dqqRvG5MzhDoVCBbed0Vj2tU/VBNPylfU89qL3VCuocNGxbrxzKH4B4XBmPHjo1kg/tJkybFsca13IZY+7h/8803Y97GuBUhbeSFGOF+FukRIdM94xIynZYNYSGvrL9YkUjPeIcsiuRhpQR70mpsf/XVV/Ge8fLiiy/GxVA5LJcuXRrJNBYydIOM0ceU+c4770TdIVWUB6linxtxqXu9e/fukXxRj9pN+kGDBkViSXqIehpfCpdyurbnOBOy9tz7brsRaEYEiggZm7pZgetFnSdk+eq1P4wXPsTu0UcfjRMDE/6KFSviNRYNCUSQiWDkyJEKKjw3h26FBTciEOKErnPnzm2Qa9GiRdlEziSZWtTShOSFcKWCxQorCmUQz/HCCy+ETz75JLOsaMJP8+Wv87phbaIvUpELNA3jGrclRAICR3/U0k/5skvdi5BhoZG88cYbkVBwj/sWLI4eParo8Mgjj0SyivUQ8gFGyIMPPhjTimwylmgPJLWSQKIhHRIWC9SbEjKwlKSEbNeuLkkcOAAAIABJREFUXTGtFhO4qsn766+/Zi7g1H09YMCAGM/4ECED62oFMieSrbqx6EnkQseCWC0hS59FyJ6s05VwUZ0+N0TAhKwhHr4zAkagiQgUkR72eDHhad9KJULG3qiDBw9mGsgVB+nA2sOEtXz58iye1TxhbEAvJ82hW7nyy8UxsTMZoueoUaNKJpUlkc3yRQJJwKqSClYwylbe5557LouW+3fGjBlZWP6ilG7gnRIJ8n300UeZhUTlYNmE3GCpk2Wvln5SuZXOImSpy1cklLy4HMEbQq8Daw5hjMVXXnklWoxwiRMmyyxtgIhCaiuJ9kVpXx3psWxRXkrIcENKUkJGGC5NWfXoO/ZZIp999lkshz6Q/jw7lA0JEiFrzNeaKSHTnj+5+qmTsiiffq6WkIGBhOecNlSDi/L43BABE7KGePjOCBiBJiKQJz1sLucFD5FgMtSEyD0TeClJ9y2RhlU9L3smS8qbPXt2lpV9WIThkiknzaVbuTqK4iA8TO7oqD1MSgcxyP88AhMaBKdIsDrkv47DKoHLTQRFe8jID7ml3lL7i8rphlsZApAKEzpERwIxUF9iCZXU0k8qo9JZ7U3JOSRG2EFssMxiAcofkCa+2tVY4ozViTMuTc7p16uldNFiAZeiRGEpIcOlJ8kTMsYE9Wl8QrQQ3IOEQ47y+lOGCJnKreacEjKRdW0VIL/IJG5xEbLUAsYeNsYbIpdlWi9jg/ErDMrhkubz9R8ImJD9gYWvjIARqAEBTSraQ8YkB1lIDyZMrDp515uqhajhtpOIVDCpQdTI//777ys6WiKYuNgrVk6aQ7dy5ZeKYxJEvyILHqSH9qRfiGIxgbgWCVYrNoZLREYpW9aNdI8Z1g/qTq1Iysu5nG647cibuk+ZjMmDsNkbMgbxYR9fKrX0U1pOuetKhEwkOP2aEbIqCyNEmPahP2Qfwf2L25LwfJtK6QImWLAkuKPJXy0h0x5IiAz55GLF6sY9rmjJypUr4xe7fK1bKyET4Updvuypo062BwjfdOzwUUc1hAx9K+GiNvncEAETsoZ4+M4IGIEmIpAnPUXF5F2WP//8c9x3wqofEREYN25c/BJNv6uleAgHRIC9OnzFyIufr9UkbIhOV+YKb4puytvUswgREz7tSQ+sCOy9YgLE8sC13FRYRxA2x7MnZ+vWrfFe+5PYj8fPeUDQIG9yW2njN+4oLBtYFiF8kFoEl56IcCXd9EUrxAayy4Z1dNVHArSJ+88//7xBu7RRvlI/RYVq+CPCUMpCpj11jA2+aJRFLCWsEDDawN44hDP3+pK0GvWUhzGHlVa/OVctIaMO+pF60z17WBwZ5xDwefPmBcgYYx3CjmW1VkJGGZSNFRFCz0+poDt17t+/P7Ou4jIFP76wRMdqCVklXKrBtj2mMSFrj73uNhuBFkCAlTsvbVnIiqpgEuCrLolcJ3I5QlT4RB8iQVlMEPwmmQTLBit14jhwk6S//A/hS91qytcU3ZS3qWdtlJeu6Vk/zwABxRWpOPJoXw6uWcK1z4dJVK4swrEmsndMgjVIlhbimTxTlxTYyBpUjW4QO/CnrPTDDJFbwvOH9r9V6ifp3NQzJJW6003tWL8YNxJtzicd7Xj++ecb/CwD5JQ44SuSKtKqcsqdsQayH0046KMUjVn0Sa1QeZclZWs/V95Nij5y81M+5AjijrAXkbDGCNZNCJ2ELQVYCKU74zB1UUL8FUf/v/766xkhk6tVZXFGPzBGKuGS5vP1Hwg0rkf/yOcrI2AEjECLIcD+JqxAkJAiwdWT7lsqSnMjhdHW9DecyunORnTclaUEUouVozmEiRXyWKofKtXR2v2E/mDL/qiWFKyU+qihueuBAKeu1+Yunz6SqzRfNu70StsB8nnS+5bEJa2nrVybkLWVnnQ7jIARMAJGoNkQ4OcncOWVOlLrY7NV2sSC+L2wUnoSzv+wtNQ/AiZk9d9H1tAIGAEjYASuMwK4BXHplTr43bN6EdyRpfQknK8iLfWPgAlZ/feRNTQCRsAIGAEjYATaOAImZG28g908I2AEjIARMAJGoP4RMCGr/z6yhkbACBgBI2AEjEAbR8CErI13sJtnBIyAETACRsAI1D8CJmT130fW0AgYASNgBIyAEWjjCJiQtfEOdvOMgBEwAkbACBiB+kfAhKz++8gaGgEjYASMgBEwAm0cAROyNt7Bbp4RMAJGwAgYASNQ/wiYkNV/H1lDI2AEjIARMAJGoI0jYELWxjvYzTMCRsAIGAEjYATqHwETsvrvo7rXkH9m7MMYeAx4DHgMeAx4DDR9DJiQ1T3dqX8F/QA2/QE0dsbOY8BjwGPAY4AxYEJW/3yn7jX0y8QvE48BjwGPAY8Bj4HaxoAJWd3TnfpX0A9hbQ+h8TN+HgMeAx4DHgMmZPXPd6yhETACRsAIGAEj0MYRMCFr4x3s5hkBI2AEjIARMAL1j4AJWf33kTU0AkbACBgBI2AE2jgCJmRtvIPdPCNgBIyAETACRqD+ETAhq/8+soZGwAgYASNgBIxAG0fAhKyNd7CbZwSMgBEwAkbACNQ/AiZk9d9H1tAIGAEjYASMgBFo4wiYkLXxDnbzjIARMAJGwAgYgfpHwISs/vvIGhoBI2AEjIARMAJtHAETsjbewW6eETACRsAIGAEjUP8ImJDVfx9ZQyNgBIyAETACRqCNI2BC1sY72M0zAkbACBgBI2AE6h8BE7L67yNraARuGAR++eWXcPLkyZL67t27Nxw4cKBkPBHnzp0L+X+0fPny5QZ5jh07FrZv394grNJNKd0oe8uWLWX1rlR2pXjafeLEicJk1I9u58+fL4zPB164cCFs2rQpXLp0KR8V748fPx42b95cGFcUWE63q1evRt3ojyJBB7ArJU3pp1JllQqn/h9++CH8+uuvpZI43AjcEAiYkN0Q3WQljUD9I8Ck2KFDhzBnzpxCZXfu3Bluuumm8PbbbxfGK/Dmm2+O5VCWjunTp8foU6dOhcceeywLv/XWW8OGDRuUteS5lG6zZ8+OOqmeJ598MpLBkgU1MoJ677nnnkzfJ554IqxZsyYrpX///iFtb8+ePcOVK1ey+PxF165dM33BcurUqVmS06dPh44dO2Z13XbbbeG7777L4vMXlXSbOHFiuOWWW7LyqFu6nT17Nrz88suZLvRD3759g4hzU/spr2O5+/nz54fbb789048+ZGxBIi1G4EZEwITsRuw162wE6giBPXv2hNdeey2bGIsIGZaUe++9N6YpR8iw1jCxTpkyJVrAsIJxyELz1FNPhTvvvDNaZUgLwYEMXLx4sRCRcrrt27cv1vXxxx9HaxMWFghIt27dCstqbCAWMUjThx9+GPU/fPhweOihhyIBg7iAE22FGEF0Zs6cGe9nzZpVWNWIESNi/MKFCwPkq1evXvFeFqp33303YgFeWNH69OkT6z906NA15VXSDdKIbkOHDo26S7dvvvkmlvXpp5/GsrHE0RbFf/nllzG+sf10jYIVAhhPEE7qwQqHdfHzzz+POk+ePLlCbkcbgfpEwISsPvvFWhmBGwYBLCeQpFJWKBrSo0ePcN9998V0KSFbvHhxuOOOO8LatWtje1XGmTNnAoQrdePhCoUkjB49OsOGfIQtWbIkhmEhevXVV7P4crphjYLMIbKqQFRE/rJCmniBWxFyhwtRMnDgwKgv9UAIsfJI1q1bF+PGjx+voAbnu+66Kzz77LNZGKQEwgfxQmdwmDBhQoynPRClI0eOZFarLGMI0eVZTrcuXbpE4iiLGHkff/zx8MADD8RiIIcp8YEQo0vnzp2j67dSP6W6NOWafmfM7dixI8sOMaXeUaNGxTCsePS/rGiQ7X79+mXpaYsIJpZGLJnLli2L8Ywx8KZNHC+99FIkwUSuWrUqWmkJf/HFF8u6h9966604vhnjOr744otMh7lz58Z6KYv4r776KovjAv1YyBD/wgsvBMbIokWLsrJUJmcWRUg53T/66KMsL+175JFHGlhsn3nmmSw+LZsFAMJ2g6effjqODfB87733smd0xowZsU9iwn/+wYrKc1YkLE5Ux9133x2ef/75wKIFYfwOGzYskm7aDgZ6xonn2VLe9KyF2YMPPhjGjh2bVQuupNu4cWPUP82ja7BlIfPBBx/E9wL1YjHnOZWUw4dFCWNSwsJJYwh96OtKYkJWCSHHGwEjUBYBiBMTN5YYJsS8hQzSRfi2bdviCypPyHiJiZD17t07piWMPBy4wpD169fH+wULFmT6QGxIM23atBgGIdPEREA53Z577rnAi/Kdd97JJl6sTnK7ZZU00wXl0i4IQiq494YPHx4nDAgiJKpImCDykxvlMemLjAwZMiRiDCYQDCagaiSvGxMRBDoVyFZed8XjGlU/VNNPytccZ/bfYVEFC9y/mkCxfKITbuFJkyZF8sH9Tz/9FKsl7YABAyLRAlvGDeNF4xUyQbsYr+QbNGhQtMRimbv//vsDLl2usdKWEogEWEISOaize/fuMfnq1atjuej99ddfZ654rhHc9NRL+RBtSAtpIaEqj3jGMfdYVsvpTpmQHnQmPWOda3QS8YZA0DaV//rrr0cdWFSwAKD/IWJYThkP1K/nDQLEfSqQXshskVAv2w+wqrIAoA94fhGeB7UdXSBN3EPEkHnz5sV76UlfEa8FHGWLfPNeomzi6Xv6lHwsMAhXGQcPHoxtIR1EnjZSDm2m7Ug5fCDP5EUghuQF3/SZlDU7Jir40xC9ggQOMgJGwAhUg0ARIcOdxAsciwrCCy0lZPlytT+MVT7E7tFHH40vOV6iK1asiNdMZBImEl6CI0eOVFDhuUg3Jh7y8tIcPHhwfEFzz2TQEgJxovz8ShmLhyYMJu/UopbqQV5e7qkw4WGxoAziObCkfPLJJ3FCAPtqLH553R5++OE4WaZ1yQWahnGN2xL9IXD0Ry39lC+7mnsIgdrOxKzJ87PPPssmZcrBfU06yBnChAkhw9UJEVY+LD1pOaQlnnogy4wVykJE1mRhjYHJH8bWuHHjshDuRchEItL+gUTLakvf8jxI2CuJVSmd1GnPmDFjlCSU051EEDLKkPCcUQbPB5J/PmWxZkzKLZ261MGP/MQ3hZDRRxKsvyL8YJAuCFi0UA+YIRBwxraEe+KLCNkrr7ySPV8i4+TT/k2VQd9SBuRQsnLlyhimNpfDJyVk9ANlaXGAtZZ7kUSVnz+bkOUR8b0RMAJNQqCI9LC6xwqlCSv/QstXhGuElapErjhIB9YeXmrLly9XdPwikzCsFeWkSDcmPPJu3bo1y4oFgtV4cwrWJ5EGVuOlJLVuFKWB9ORf6EzglK28WEskmkyZHEpJKd3AG1KWCu4uCEUqWDYhNuAmy14t/ZSWXe019UJyRXDSPYC4jXCXQ+zRk/6WS1h6g2v6cQT1YnVjwsZFBTkgX2rp+fnnn6PlinD27pUSysaaI0kJGZjxbKQiCzETOHkhf+WE+lNCRtpyukPIIDIQcNyt1JHqkH8+NYYgXJAn6mNcgCcH6QljkSRCRj/oAOMUt7QtxDF+0YXxRjlYw1nE6TpNzwKK9AguSKyPklKETHshwYgyyxEy3NWkoV/UPly6hKkfyuEjQsbzCLHMPyuUKwug9M6fTcjyiPjeCBiBJiGQJz1sLudlxkufSU0TG/e8nEqJ3CeKZ6XMpKEVLF9GSliBUsfSpUsVVHjO60YiyAs6pYKrAv2aSyA8WKzQMT9xQlJZ+aeCTkxURQJRRL9UeOmzwV4uS+0hIw3klnpLWfzK6Yblh8knFSaa1LrCJKy+ZBKV1NJPKqPSef/+/XF/FW2QgGc6EWLpoP2MtTfeeCMjDCkho420IcVIJATiQn9gfQXnlFiAN0SCNJSf6iF9NObSnyBJCRl14zZLRXsMtRDBeldO8uOqku4QMsYX7eKDCPTn0CKoHOHAskd9EHNIbnqwHaEphAzs0AUcKBuyp72iuAxTgRzJasb4hCxLiggZBBLSBvGEpFJ+OUL2448/xjTok7aNa+KQcviIkEFG6eeUMJIXaydEr5yYkJVDx3FGwAhUjYAmIO0hY1UNWUgPrYrzrjdVwgsat51EpIL9OxA18r///vuKjhvLedGy96ec5HUjLW498qYuI6xmeumXK6/aOFnGiix4TCq0RxuRKRMrQJ4kqi6sCOwjkoiMUrZcIukeMzZB0770wwHl5VxON0gIeelDCZMMeRAmOIgMkw77+FKppZ/Scspd02b0S3EVIYOUgSnxkCaJPppg4kTAHpcbLkXSslkfgXQyDuXChGzRVog17cZKqTjtZWLfXF7YlA7ZkXWY+JSQQYgoV2WpbrntSIu7TbJ79+6oc9qf6J0S/XK6U07eZckmfcoQJhCOTp06qcrsQx3GgQgH7nEJLj2+ImYzvgiZ4jjzPKVENo0D/9RlyUci6MJCDlxS8sJme+LoT/qW+NQVXETIwJF0tLEaQsZX1tSBlVJy9OjR+OGCtklUgw95GZfUrWebMcBz/eabb6rowrMJWSEsDjQCRqCxCBSRnnwZ+RUmrh++imSFjYgI8LJlAsXEz0tS8RAOXnRs7GeDL5NWulLG5ZFfWVNukW5YBSgbAojFQz+bUJQ/345q7kWIsO7RnvSABGI5oX6+VONaLiHtMWKSBxu5VGkz6dmPxx4mCBovecgYok3W7PVhAoFYMulBahEIqIhwJd1kpYCEQHZx31G3PhKgTdyDWdoufaVYqZ+iQjX8Ya8Qfc9YAC+splg20Onbb7+N5J14CArWNLBk7BGvn+YQIWOyxBXGwTUWDuIYX+DMPfnAWxM7blF+V0+b3mVhUpPADIsmYwu3rg4IGgQFfNGZcrknXgsE9b/uWYyAO88C/Z0SOPKnhKyc7ugGIYPUUx/ECosrZbCIwu1Nu/nKUCKLG4QMKyh4kx8iChkDYxYR4NYUQgZBQRewwIJE+dTDogu9eCaIl5X5L3/5S+w/4tCBOA49O7xPENpBGo139Vs5Cxn5IJDkhXyShy0X6MTipxI+IqyUw1fi1M+YxG0KkeQ+/VI0Kpr7Y0KWA8S3RsAINA0BVsm8dGQhKyqFlzlfNUr0wpfLEaLCCl0vVF6GrH4luPjk3qAuJtz0l/+ZdAnLSynd2HukuiiPFyeTS3OIXsKUmz+wdiAQUH1BpvqxBiCasPUSRy+5jUiLFYdJQsIkIFJCPJMlk5UEbLRfqBrdIHbgT1kQCX2YIXJLeP6AECCV+kk61XKGpFOfdEQX3JRyH7IvDAIjHYnDasLkjtDvuAgRfYiAlQbyAzlTPogCZAgMECxkGjOUn/+pCtIwhpW/6My4R9ibpHjagdVULnv+YwWEXPHolO5HIz9xECFJJd0hZCqPM2OIjzW0OKBdsgZRJpvZSScrKGMxxRQXo1yypQiZxoR01Bk8U10Ym3y8gzCWcTUqnrQQHu0vU3j+THsQ2iFLKfdqX9q2/KZ+0vFcarFB2TwzPAfKXw6flJBRlvatSUessZXEhKwSQo43AkbguiPApIp1ohQ5YoJI9y3VqiAWDRGhWstqSn7aygRcjWAd0tdbRekhtViFmkMgB0xSpfqhUh3N3U9F9WEx2rVrVwPLUZoObFOrUhpX7hrimbqz07TgUa4PIGSQ3iKBKIuQEc9YB2MRyXwexkW66MjHF92X070oPWFyr5WKT8MpH9LU0kLb0+0IImT6vbK0fhZuImRpeFOusSrn62gMPqqz0thUOp1NyISEz0bACBgBI2AEmgGBxhCyZqiu3RRxvQhZawFqQtZayLteI2AEjIARaJMIYG0tZXHF6lbKGtYmwWjmRmlPZL5YrFGlLJr5tPV6b0JWrz1jvYyAETACRsAIGIF2g4AJWbvpajfUCBgBI2AEjIARqFcETMjqtWeslxEwAkbACBgBI9BuEDAhazdd7YYaASNgBIyAETAC9YqACVm99oz1MgJGwAgYASNgBNoNAiZk7aar3VAjYASMgBEwAkagXhEwIavXnrFeRsAIGAEjYASMQLtBwISs3XS1G2oEjIARMAJGwAjUKwImZPXaM9bLCBgBI2AEjIARaDcImJC1m652Q42AETACRsAIGIF6RcCErF575gbSi39X4cMYeAx4DHgMeAx4DDR9DJiQ3UDEp15V9QPY9AfQ2Bk7jwGPAY8BjwHGgAlZvbKcG0gvv0z8MvEY8BjwGPAY8BiobQyYkN1AxKdeVfVDWNtDaPyMn8eAx4DHgMeACVm9shzrZQSMgBEwAkbACLQbBEzI2k1Xu6FGwAgYASNgBIxAvSJgQlavPWO9jIARMAJGwAgYgXaDgAlZu+lqN9QIGAEjYASMgBGoVwRMyOq1Z6yXETACRsAIGAEj0G4QMCFrN13thhoBI2AEjIARMAL1ioAJWb32jPUyAkbACBgBI2AE2g0CJmTtpqvdUCNgBIyAETACRqBeETAhq9eesV5GwAgYASNgBIxAu0HAhKzddLUbagSMgBEwAkbACNQrAiZk9doz1ssIGAEjYASMgBFoNwiYkLWbrnZDjYARMAJGwAgYgXpFwISsXnvGehmBGxCBX375JZw8ebKk5nv37g0HDhwoGU/EuXPnQv4fLV++fLlBnmPHjoXt27c3CCt3Q70nTpwoTHL16tWA3tTZUlKuftpG/efPn6+q+gsXLoRNmzaFS5cuFaY/fvx42Lx5c2FcUWA53Sphgw5btmwpKjaGNbafShaUi0CvjRs3hg0bNmTHjh07AuEWI3CjImBCdqP2nPU2AnWGwA8//BA6dOgQ5syZU6jZzp07w0033RTefvvtwngF3nzzzbEcytIxffr0GH3q1Knw2GOPZeG33nprnJCVN39Gp3vuuSdL/8QTT4Q1a9ZkySZOnBhuueWWLL5r167hypUrWXytF5Xq79+/f0jb27Nnz7L1ox8YggvnqVOnZiqePn06dOzYMWvLbbfdFr777rssPn9RSbdy2Jw9eza8/PLLmS70Q9++fYOIc2P7Ka9bpXvaqrGRnsFy/vz5lbI73gjUJQImZHXZLVbKCNw4COzZsye89tpr2QRZRMiwpNx7770xTTlChrWGCXbKlCnRAoYVjEPWq6eeeirceeed0SpDWggWZODixYvXAIZFDNLy4YcfxvyHDx8ODz30UCRAEAeIGXUNHTo0xs+cOTPef/PNN9eU1ZSASvWDE/VDjCCBqn/WrFmF1Y0YMSKmX7hwYYCQ9OrVK97LQvXuu+9GLMALK1qfPn1i+w8dOnRNeZV0q4TNp59+GsvGEgeW0v3LL7+MdTWmn65RrooAETL1HVbZX3/9NVAvfa7xUkVRTmIE6gYBE7K66QorYgRuTASw2kCSIBYQjCJC1qNHj3DffffFdCkhW7x4cbjjjjvC2rVrY+NVxpkzZwKEK3XjMelS/ujRozOgyEfYkiVLYhgWoldffTVe49br1q1bwIUnGThwYEwPIenSpUskZ6lF7PHHHw8PPPCAktd0rlT/vn37Glhz1q1bF3UbP358Yb133XVXePbZZ7M4SC7kA+IFAQGHCRMmxHhcdxClI0eOZFarLGMI0eVZCzaQw8mTJ2dFQojRpXPnztFlXamfsoxNvBAhEwFUMWPHjo04QL4Rxsxbb70VraDo9+STT4bdu3creQBrxl96vPDCCzGedIT//PPPWXqsgnfffXckxGkeXfMcILjln3766Ti+sMC+99572Vimr5Q+PZMeYVyiczUyY8aM+EyladERSyuCJZPn8/bbb4+4oEu/fv2y5N9++220IBP+wQcfBCybyEcffRQXWUrIM4KuPJ8I2DzzzDNxAUBfE6fnHgv2F198oaxx8US8Fg7lsKnUnqzQNnphQtZGO9bNMgLXCwGIEy9sLDG8nPViVv2QLsK3bdsWIBV5QsYkJkLWu3fvmJYw8nDgCkPWr18f7xcsWKCi474w0kybNi2GQciw1hUJBIVymZwQJmdIYioQCsWn4c1xna9fZTIJDh8+PE5qWPsgUUUCodBEq3jaw+TNZAcOQ4YMiRhzjauWfVbVSF63xmKDa1T9UE0/VaNTuTQiZG+88UYcb1gVv/rqq0iARGzITzvQ65133glyD4Mx+xSR7t27R9xHjRoVOBgPWHIRYbp8+fJ4/9e//jWWRXkQUOVhvEDSuGexAFEmDJKDBY8xRR6NS+nOwkFlPPjggxmxQn9ITTUiApqmZUHx0ksvxaCPP/441k3bJ02aFB555JF4/9NPP4WtW7dmeqmcYcOGxXzPP/98tCarXJ5v2qDFAnXQPtrLQXsZn1hmcZVD9iVaaHCuhI30UF7OaXvS8LZ4bULWFnvVbTICrYBAESFjUzcvbiwqSJ6Q5dXU/jBe8hC7Rx99NE4ETPgrVqyI16tXr86yaaIYOXJkFlbqAuLCpDJ37tyY5OGHH75m4pObr1QZtYTn61dZixYtipMZukEgUoue0nAmHsKVCpMVEzhlEM+BheeTTz7JrDPVuO/yujUGG9yWTMaQGfqj1n5K21fqWqRGbU7PsuLs2rUr4oF1VsKYIq0siRC6F198UdGB+yJCJiJBO8mfClg999xzWZDct6nrecCAATEffSvdv//++ywPFjTINdKchOyzzz5rYBFjewH6Q84gzoMGDcosqFixIGxIOUIGmX3llVcyaxnpsbRRLlZf2vHmm2/GcviTErJK2JiQZbD5wggYASPQdASKCBl7vFj96+u3SoSMyergwYOZEnLFMUlh7eGlL4sFiZgcCGMDeinB+qM9blgkJJTJZJoKrhpW+M0pperP1yFLIi6nIoEMpO4m0mAFo23KmxIDuX9xA5WSUrpViw2WTTbSMwnLstfUfiqlY1G4SA0WIIgX+8eWLl0aiRHjgX12mvzlzqYcXHjE088IFlWsZJJShAzLEe3E0kT+VPKEDBJEGsJZUHAw7gljMSHdyxEy+hpMsbzhwpQFOa2XaxEYxowO9JSFjDRgASlFD+LQQ5Yu4iFn99+1Y93qAAASl0lEQVR/fwwHMwRCRlqVyTnNh4UQlzXWP+Ulng93cKuTly+H2XogHSFmlbBR2rTefHuigm30T8OR1UYb6WYZASPQ8gjkCRmby3lJM7ngJuLQvawBRVphZUkFywukjgmf/LNnz86iWZETxmRcJBAOLEakGTNmTIMkuE6ZKFOB3LDxv7mkXP2QVO3ZUX0QKiagIsGCwX6gVCCPbLCXe02WH9Jo4scdWiTldKsGG8iFiAOWUElT+kl5qz2rbfk9ZLjM6OtOnTplexpTMoOli3i5fsH066+/zqotImSQFNo5bty46GIkfyp5QgbBIw2kDyKUHrjtpXs5QoYLEKsvex4Z/5SnPVhp3ZUIDGSOvDxvtE3pU0KG1VCEC9yQcoQMMqYvlyFj77//fnRRUg+EjIMxzH16QMgqYSP9TMjSXva1ETACRqCRCOQJGe4ZyEJ68KLmZZ53vakqJg7cdhJNXrhWIGrkZwKQsErnpc8+tiKRZazIgsaER97URQjBIU9zSbn6IT20hwlOwgQHcS0SrFZYTCQio7RNlh8RDdJgGaJ9pX4GopxulbDB+gFJwb3HBxKpNKWf0vzVXGtc5AkZfUmbIa78RhnXgwcPzopctmxZDMMFDlEjnt8vkxQRMsgRY5Z2YWElTyp5QsZXuqTBjSxZuXJl/NqXjw0g4cSnlstyLktIHOlx4+dFBCYN154rxhX5cEdL5D5Exx9//DGkXxRDluhTpJzLksUP5aY/qfL555/HMCyVCMQXrKlPLmyuK2FTrj2x4Db+p+HIauONdfOMgBFoOQTyhKyoprzLki/Y2NzMpIOICGCN4AWu39VSPISDSYON/XzFCIHiay8JHwCwkRoRIcG6RnnpgStUX21iQYPQyR1V7UZ41VnqXKl+9l4xsTEZcy13jlxo7PEBGzZfI7SZ9OzHYy8QBA3yBhlDtHkciw7WKywrED7IC8K+MhHhSrpVwgZM0YWJOMWVSRip1E8xUQ1/RMiwKKp+dJFrED2wQEJg2cMIacV1B7Fi/IA3VhjiIGY6WAxgNWM8yOpIO9kEj1RDyLAWUgd1z5s3L0DGGKeQbZ4R7bdKP37JEzL6jp8eoS9xAaIDFue8lCMwEEjqxeK7f//+uGdM+EBkIXiUywcxtBVsZLkuR8iwgJGPn5OhrXzsQHsJK3p2RAI5l8OG/irXnnzb2+K9CVlb7FW3yQi0AgKs/nkppxNNXg0mKb54k2ifk1yOECXcJhAJyuJFz2+SSbAu8NMUxHEw2aS//M+EI5ejNqorbXrWTx/IHUVc+vGB6qvlXE39EFAIgHQjD243BNcs4ZAnhAlLLh/CmTzZOyZhvw4ERWUxGafuOrCBSCHV6FYKGxFv1ZOeITlIpX6KiWr4Q1vTerlmrNBGCI8EEqPfvyMNWENWsU7l86f3kFt9hcgGdgnuTdKlwkZ4CEwq9Jlc9KTHigYJVH70FFEmH65FkSGIdqoL5ejrx7QOrksRGPUDPxyc6kE9WPxYhGDFYjGjung2NdZKETK5xPmKUiSMM0SfclKLm3Rl0UWcfj6kFDbVtEdlttVzw5HVVlvpdhkBI3BDIcD+JqxAkJAiwU2W7lsqSlNtGJYECFqpuqotp5Z0tFU/xVCpHH6bDXdlKYHUYhFpDqkVm+bsp1ragx5Hjx7NioCQQUyKBLclhKw5BPIKeUwldVGn4S15zfiCgBUJ+uh324riS4VRHpbEpj43RdiUqqu9hJuQtZeedjuNgBEwAkYgInC9CJnhNgKNQcCErDFoOa0RMAJGwAjc8Ahg3cGSWCRYIOU2Lop3mBFoKQRMyFoKWZdrBIyAETACRsAIGIEqETAhqxIoJzMCRsAIGAEjYASMQEshYELWUsi6XCNgBIyAETACRsAIVImACVmVQDmZETACRsAIGAEjYARaCgETspZC1uUaASNgBIyAETACRqBKBEzIqgTKyYyAETACRsAIGAEj0FIImJC1FLIu1wgYASNgBIyAETACVSJgQlYlUE5mBIyAETACRsAIGIGWQsCErKWQdblGwAgYASNgBIyAEagSAROyKoFyMiNgBIyAETACRsAItBQCJmQthWw7Kpd/QeLDGHgMeAx4DHgMeAw0fQyYkLUj4tRSTfUD2PQH0NgZO48BjwGPAY8BxoAJWUuxlHZUrl8mfpl4DHgMeAx4DHgM1DYGTMjaEXFqqab6IaztITR+xs9jwGPAY8BjwISspViKyzUCRsAIGAEjYASMQJUImJBVCZSTGQEjYASMgBEwAkagpRAwIWspZF2uETACRsAIGAEjYASqRMCErEqgnMwIGAEjYASMgBEwAi2FgAlZSyHrco2AETACRsAIGAEjUCUCJmRVAuVkRsAIGAEjYASMgBFoKQRMyFoKWZdrBIyAETACRsAIGIEqETAhqxIoJzMCRsAIGAEjYASMQEshYELWUsi6XCNgBIyAETACRsAIVImACVmVQDmZETACRsAIGAEjYARaCgETspZC1uUaASNgBIyAETACRqBKBEzIqgTKyYyAETACRsAIGAEj0FIImJC1FLLtqNyrV6+GjRs3hg0bNmTH5s2bw969e9sRCm4qCPzyyy/h5MmTJcFgTBw4cKBkPBHnzp0L+X+0fPny5QZ5jh07FrZv394grNwN9Z44caIwCeMXvamzpaRc/bSN+s+fP19V9RcuXAibNm0Kly5dKkx//PjxwPNXrZTTrRI26LBly5aSVTW2n0oW5Agj0A4QMCFrB53c0k08ffp06NChQ+Fxxx13RLLW0jq4/NZH4IcffohjYM6cOYXK7Ny5M9x0003h7bffLoxX4M0333zNWJo+fXqMPnXqVHjsscey+FtvvTUuApQ3f0ane+65J0v/xBNPhDVr1mTJJk6cGG655ZYsvmvXruHKlStZfK0Xlerv379/SNvbs2fPsvWjHxjyvHGeOnVqpiLPYceOHbO23HbbbeG7777L4vMXlXQrh83Zs2fDyy+/nOlCP/Tt2zeIODe2n/K6+d4ItEcETMjaY683c5tTQtajR48wbNiwMHjw4PDAAw/EyeH2229v5hpdXD0hsGfPnvDaa69lRKCIkGFJuffee2OacoQMaw1kY8qUKdEChhWMQ9arp556Ktx5553RKkNaCBZk4OLFi9dAgkUM0vLhhx/G/IcPHw4PPfRQJEAQB4gZdQ0dOjTGz5w5M95/880315TVlIBK9YMT9UOMIIGqf9asWYXVjRgxIqZfuHBh4Jnr1atXvJeF6t13341YgBdWtD59+sT2Hzp06JryKulWCZtPP/00lo0lDiyl+5dffhnrakw/XaOcA4xAO0XAhKyddnxzNjslZLt27cqKXrx4cZwwsEAgTKpYzDhKuVuwZhCvSYTyHn/88fjyZ8XfvXv3mBf3zv333x/T9u7dO5aPtYC8d911Vzhy5EhMx2QsCwmWiE8++STTb8mSJTG9dErPy5cvz9L5ojwCWG0gSRALCEYRIYOo33fffTFdSsgYI+C+du3aWInKOHPmTHR5p248XKGUP3r06Ewh8hFGXyJYiF599dV4jVuvW7duAReeZODAgTE9hKRLly6RnKUWMcYaC4nmkEr179u3L8yfPz+rat26dVG38ePHZ2HpBeP62WefzYJ4hiCcEC+eLXCYMGFCjMfVCFHiOZDVKssYQnR51oIN5HDy5MlZkRBidOncuXN0WVfqpyyjL4yAEcgQMCHLoPBFUxFICdlbb70VSdN7772XuYJEgjSh8rIuRciI48Dqwl4iuZN42SuuU6dOUVVcKgpbsGBBnBC4xw2EDBkyJMaTl0lfaWWBmD17dhamOJ3nzp3bVDjaXT4sVZAaSDT45QmZiPm2bdsiWc4TMsicCBnkmjIIU1/gCkPWr18fw+hrCcSKdNOmTYtBEDKsdUUCMaFcWWyffPLJSBLTtBAKxafhzXGdr19l4t4bPnx4HKNY+yBRRcI4xqWZCu3hmcNKBg6MeYgb1yxE2NtZjeR1ayw2uEbVD9X0UzU6OY0RaG8ImJC1tx5vgfamhIyXcnowiWhSaCwhGzduXCwLyxjkjD1IKlsbx5k4FMaZSUhkD0sD1hJtcNbeI1yqiAhZahGRNc2ErPEDpYiQsakbUo1FBYEspIQsX4v6CCsYxO7RRx+N/cuEv2LFini9evXqLBtEkH4fOXJkFlbqAuJCWvXtww8/HPejpenl5kvDmus6X7/KXbRoUbaYYDynFj2l4YzuEK5UGLtPP/10oAziOV544YVoCcYiDPZy96b58td53RqDDc8XzzkWUPqj1n7K6+Z7I9BeEDAhay893YLtTAkZe0u+/vrruI8sJUv79+/PXBlMGi+99FLcFMxEwCQj15QmFSxkuMK4x2pAeg7F495BIAFMBgoX+SKOyQHLCZuPIXVKg9sKMSGLMDTbnyJCxh6vBx98MOBCQyoRMsbSwYMHM53kioN0QOzpw9SdDFEnDGtpKcH6oz1uo0aNypJRJsQjlY8++iiOlTSs1utS9efLlSWR8VokjPN+/fo1iGIBQduU97nnnsvi5f6dMWNGFpa/KKVbtdhg2YT4YamTZa+p/ZTXzfdGoL0hYELW3nq8BdqbErJ0DxlVQaaYMMeMGdOAkDExpyQJywgi0gQhY48P90xETDzpIStJnpAxMUk0CZP/+eefzzaV88EBguuS8m0hE2K1nfOEjM3l6j/GgcYC/cEEXkog0qlgeYHUMeFTHkRawj4swpYuXaqgBmcIBxYj0jAGU8FSxzhMhTHDxv/mknL1Q1JxV6YCoYLgFAludxYpqfAMsQiSy1J7yEij5xJ3aJGU060abHgG1ZdYQiVN6Sfl9dkItGcETMjac+83U9v14mfSSwnZ1q1b40RIOBNFkcty1apVWZq0HAiZLFgQMQQrGi4lNhP//+2czY3qMBRG25omKGFaYDNbOmDDihVN0MCs2bCiBArh6UT60CWCF/6ksfCxFEJwHNvnBvLh6+u4YeooHPXw0CePczlmi8s052aEjKUUyOdhn0RdfBa3Vj53P01gLMhwvSEW6obYgPHY9ZarI9SwU1LuidVqNYx4Un6xWCR7uBewF/PYrqWI8msjaLg5KVtdhAgcyrwr/a9+RA/9qRGiBKpwD19LjFp9fX2dsyJG6RvLUNCXOseMQAc+q4ED58Kn03nU8Bk2rJuGGCNylnl8NSGoH7VTLe97CfRKQEHWq+Xf2O88NPnx50eaH2P2HOezsctys9mc2CKSKEOofsogyIi0y/FsNjuxccwDnXliCLPk7/f7oV6OcYMy+pARuO/v79N8Pj+fS6QmSxswOsL55CcpyELi8f1YkF27wthleTgchnl+TPgnRSQxfxC3dNbVSj6Cg3uLif1EMWLjaj8CAFjGghRBguDmenVDtOcPAiNoCDqCQbgfIuCHi7zwMlU/7nXqIwCG98vlcjjm/iQxOZ45kPyxIdFnzmc+Ht8PBBriDTFGIiCBfJagYPSKkUW+V3w/SQTXRAhPtW2KDUypa71eX3Dd7XZDXVN2Gk7yRQISuCCgILvA4cEzBKpw4ke6bggcfvxJuGdqHu95uLJmEZOSScnPiAcPoURakscIAg8oXCQRfYmqZNmLlKfO7XZ74SZjbk6uwfIBObdG7WWtrN/f36E9vtxPgHW+YDqOsqxXYITn5+fn/FHmOcXliFAiihYhwbWwMWuSJXEPsTRFbId7sa78j+CLyzET1XNu3R+Px+GSiJfcRzX4IPW9sr+nfgRojQCmDH9MSBkhzveHPxmItfSD0cTqoud7iMsz+YjVRK9yPdhkNPiett1iE+Gdeuo+89+m7PQKV8tK4FMJKMg+1bIf1i8e9vmn/2jXsixDLccIGw/y6i6q+b7/WwLMb2IUKMEA49bgJqvzlsb5jxzjYkOg3arrkWs9ey59JUDhnoQ7HnflrYSoZUT6HelVNu+00zv64zUk0DIBBVnL1rFtEpCABCQgAQl0QUBB1oWZ7aQEJCABCUhAAi0TUJC1bB3bJgEJSEACEpBAFwQUZF2Y2U5KQAISkIAEJNAyAQVZy9axbRKQgAQkIAEJdEFAQdaFme2kBCQgAQlIQAItE1CQtWwd2yYBCUhAAhKQQBcEFGRdmNlOSkACEpCABCTQMgEFWcvWsW0SkIAEJCABCXRBQEHWhZntpAQkIAEJSEACLRNQkLVsHdsmAQlIQAISkEAXBBRkXZjZTkpAAhKQgAQk0DIBBVnL1rFtEpCABCQgAQl0QUBB1oWZ7aQEJCABCUhAAi0TUJC1bB3bJgEJSEACEpBAFwQUZF2Y2U5KQAISkIAEJNAyAQVZy9axbRKQgAQkIAEJdEFAQdaFme2kBCQgAQlIQAItE1CQtWwd2yYBCUhAAhKQQBcE/gHu7QH2AmnPqwAAAABJRU5ErkJggg==;" vertex="1" parent="1">
          <mxGeometry x="70" y="242.99" width="410" height="207.01" as="geometry" />
        </mxCell>
        <mxCell id="L32rWy5U-hmD1AWpwfB_-114" value="id чека" style="text;html=1;strokeColor=none;fillColor=none;align=center;verticalAlign=middle;whiteSpace=wrap;rounded=0;" vertex="1" parent="1">
          <mxGeometry x="80" y="200" width="140" height="20" as="geometry" />
        </mxCell>
        <mxCell id="L32rWy5U-hmD1AWpwfB_-115" value="&lt;div class=&quot;order-information-common__moscow-date&quot; style=&quot;display: flex ; font-family: &amp;#34;yandex sans text web&amp;#34; , &amp;#34;arial&amp;#34; , sans-serif ; font-size: 14px ; background-color: rgb(255 , 255 , 255)&quot;&gt;&lt;div class=&quot;TextWithCopy&quot; style=&quot;display: flex&quot;&gt;&lt;div class=&quot;TextWithCopy__text TextWithCopy__text_no-wrap&quot; title=&quot;23.06.2020 в 14:54:00&quot; style=&quot;text-overflow: ellipsis ; overflow: hidden&quot;&gt;3456&lt;/div&gt;&lt;div class=&quot;TextWithCopy__icon-wrap&quot; style=&quot;display: flex&quot;&gt;&lt;span class=&quot;amber-icon amber-icon_copy TextWithCopy__icon&quot; style=&quot;display: inline-block ; width: 20px ; height: 20px ; opacity: 0.5 ; margin-left: 8px ; transition: 0.1s ease-out 0s ; cursor: pointer&quot;&gt;&lt;/span&gt;&lt;/div&gt;&lt;/div&gt;&lt;/div&gt;&lt;div class=&quot;order-information-common__due-local-date&quot; style=&quot;color: rgb(158 , 155 , 152) ; font-family: &amp;#34;yandex sans text web&amp;#34; , &amp;#34;arial&amp;#34; , sans-serif ; font-size: 14px ; background-color: rgb(255 , 255 , 255)&quot;&gt;&lt;div class=&quot;TextWithCopy&quot; style=&quot;display: flex&quot;&gt;&lt;/div&gt;&lt;/div&gt;" style="text;html=1;strokeColor=none;fillColor=none;align=center;verticalAlign=middle;whiteSpace=wrap;rounded=0;strokeWidth=1;fontStyle=1" vertex="1" parent="1">
          <mxGeometry x="250" y="200" width="200" height="20" as="geometry" />
        </mxCell>
        <mxCell id="L32rWy5U-hmD1AWpwfB_-116" value="" style="rounded=0;whiteSpace=wrap;html=1;" vertex="1" parent="1">
          <mxGeometry x="50" y="920" width="730" height="210" as="geometry" />
        </mxCell>
        <mxCell id="L32rWy5U-hmD1AWpwfB_-117" value="Сделать возврат" style="rounded=1;whiteSpace=wrap;html=1;strokeWidth=1;fillColor=#f5f5f5;strokeColor=#666666;fontColor=#333333;" vertex="1" parent="1">
          <mxGeometry x="60" y="980" width="180" height="40" as="geometry" />
        </mxCell>
        <mxCell id="L32rWy5U-hmD1AWpwfB_-118" value="Пользователь" style="text;html=1;strokeColor=none;fillColor=none;align=center;verticalAlign=middle;whiteSpace=wrap;rounded=0;" vertex="1" parent="1">
          <mxGeometry x="30" y="920" width="140" height="20" as="geometry" />
        </mxCell>
        <mxCell id="L32rWy5U-hmD1AWpwfB_-120" value="" style="endArrow=none;html=1;" edge="1" parent="1">
          <mxGeometry width="50" height="50" relative="1" as="geometry">
            <mxPoint x="290" y="1020" as="sourcePoint" />
            <mxPoint x="370" y="1020" as="targetPoint" />
          </mxGeometry>
        </mxCell>
        <mxCell id="L32rWy5U-hmD1AWpwfB_-121" value="Сумма&amp;nbsp;" style="text;html=1;strokeColor=none;fillColor=none;align=center;verticalAlign=middle;whiteSpace=wrap;rounded=0;" vertex="1" parent="1">
          <mxGeometry x="310" y="1000" width="40" height="20" as="geometry" />
        </mxCell>
        <mxCell id="L32rWy5U-hmD1AWpwfB_-122" value="Новое списание" style="rounded=1;whiteSpace=wrap;html=1;strokeWidth=1;fillColor=#f5f5f5;strokeColor=#666666;fontColor=#333333;" vertex="1" parent="1">
          <mxGeometry x="60" y="1040" width="180" height="40" as="geometry" />
        </mxCell>
        <mxCell id="L32rWy5U-hmD1AWpwfB_-123" value="Сумма&amp;nbsp;" style="text;html=1;strokeColor=none;fillColor=none;align=center;verticalAlign=middle;whiteSpace=wrap;rounded=0;" vertex="1" parent="1">
          <mxGeometry x="310" y="1050" width="40" height="20" as="geometry" />
        </mxCell>
        <mxCell id="L32rWy5U-hmD1AWpwfB_-124" value="" style="endArrow=none;html=1;" edge="1" parent="1">
          <mxGeometry width="50" height="50" relative="1" as="geometry">
            <mxPoint x="290" y="1070" as="sourcePoint" />
            <mxPoint x="370" y="1070" as="targetPoint" />
          </mxGeometry>
        </mxCell>
      </root>
    </mxGraphModel>
  </diagram>
</mxfile>
